<?xml version="1.0" standalone="no"?>
<!DOCTYPE svg PUBLIC "-//W3C//DTD SVG 1.1//EN" "http://www.w3.org/Graphics/SVG/1.1/DTD/svg11.dtd" >
<svg xmlns="http://www.w3.org/2000/svg">
<metadata>Generated by IcoMoon</metadata>
<defs>
<font id="icomoon" horiz-adv-x="1024">
<font-face units-per-em="1024" ascent="960" descent="-64" />
<missing-glyph horiz-adv-x="1024" />
<glyph unicode="&#x20;" horiz-adv-x="512" d="" />
<glyph unicode="&#xe900;" glyph-name="twitter" horiz-adv-x="1117" d="M1110.845 805.187c-40.243-17.834-83.484-29.885-128.94-35.332 46.899 28.063 81.994 72.232 98.723 124.265-44.069-26.173-92.29-44.596-142.587-54.469-33.818 36.11-78.613 60.044-127.429 68.087s-98.922-0.256-142.539-23.609c-43.616-23.352-78.302-60.451-98.675-105.537s-25.287-95.636-13.986-143.802c-89.286 4.483-176.632 27.69-256.368 68.115s-150.083 97.164-206.472 166.535c-19.281-33.259-30.368-71.821-30.368-112.89-0.022-36.971 9.083-73.375 26.505-105.984s42.625-60.412 73.37-80.944c-35.657 1.134-70.526 10.769-101.707 28.101v-2.891c-0.004-51.853 17.933-102.111 50.766-142.246s78.541-67.672 129.367-77.943c-33.077-8.952-67.756-10.271-101.418-3.857 14.34-44.617 42.274-83.632 79.889-111.584s83.032-43.443 129.888-44.302c-79.542-62.442-177.776-96.313-278.899-96.164-17.913-0.005-35.811 1.042-53.601 3.133 102.646-65.998 222.133-101.027 344.165-100.887 413.095 0 638.923 342.14 638.923 638.875 0 9.64-0.242 19.377-0.68 29.017 43.93 31.767 81.846 71.104 111.979 116.168l0.093 0.144z" />
<glyph unicode="&#xe901;" glyph-name="instagram" horiz-adv-x="1126" d="M1049.057 611.082c-0.532 40.158-8.049 79.917-22.221 117.498-12.279 31.7-31.039 60.489-55.078 84.527s-52.827 42.799-84.527 55.082c-37.098 13.926-76.29 21.456-115.908 22.27-51.007 2.28-67.18 2.916-196.661 2.916s-146.077 0-196.713-2.916c-39.6-0.819-78.773-8.349-115.854-22.27-31.705-12.274-60.498-31.031-84.538-55.071-24.039-24.040-42.797-52.833-55.071-84.538-13.954-37.070-21.468-76.252-22.216-115.854-2.28-51.061-2.969-67.233-2.969-196.713 0-129.482 0-146.024 2.969-196.714 0.795-39.661 8.272-78.792 22.216-115.96 12.295-31.695 31.066-60.477 55.114-84.507s52.844-42.779 84.548-55.049c36.98-14.486 76.161-22.555 115.855-23.86 51.061-2.28 67.232-2.97 196.713-2.97s146.078 0 196.714 2.97c39.615 0.78 78.81 8.292 115.907 22.217 31.692 12.296 60.473 31.062 84.51 55.098 24.037 24.037 42.802 52.819 55.102 84.51 13.947 37.116 21.422 76.247 22.211 115.961 2.284 51.007 2.97 67.18 2.97 196.713-0.102 129.482-0.102 145.919-3.072 196.661zM574.345 171.153c-135.42 0-245.124 109.704-245.124 245.124s109.704 245.123 245.124 245.123c65.011 0 127.359-25.825 173.328-71.795s71.795-108.318 71.795-173.328c0-65.011-25.825-127.359-71.795-173.329s-108.318-71.795-173.328-71.795zM829.225 613.309c-31.655 0-57.159 25.557-57.159 57.159 0 7.503 1.478 14.932 4.349 21.863s7.080 13.229 12.384 18.534c5.305 5.305 11.604 9.514 18.535 12.385s14.361 4.349 21.863 4.349 14.932-1.479 21.863-4.349c6.931-2.871 13.23-7.080 18.534-12.385s9.514-11.603 12.385-18.534 4.349-14.361 4.349-21.863c0-31.602-25.557-57.159-57.105-57.159z" />
<glyph unicode="&#xe902;" glyph-name="fb" d="M615.986 95.185v334.289h112.775l16.763 130.885h-129.538v83.368c0 37.769 10.523 63.627 64.729 63.627h68.684v116.691c-33.419 3.581-67.011 5.311-100.621 5.18-99.682 0-168.123-60.854-168.123-172.568v-96.053h-112.041v-130.885h112.286v-334.534h135.085z" />
<glyph unicode="&#xe903;" glyph-name="mail-icon" d="M853.333 789.333h-682.667c-46.933 0-84.907-38.4-84.907-85.333l-0.427-512c0-46.933 38.4-85.333 85.333-85.333h682.667c46.933 0 85.333 38.4 85.333 85.333v512c0 46.933-38.4 85.333-85.333 85.333zM853.333 618.667l-341.333-213.333-341.333 213.333v85.333l341.333-213.333 341.333 213.333v-85.333z" />
<glyph unicode="&#xe904;" glyph-name="search" d="M661.333 362.667h-33.707l-11.947 11.52c41.813 48.64 66.987 111.787 66.987 180.48 0 153.173-124.16 277.333-277.333 277.333s-277.333-124.16-277.333-277.333c0-153.173 124.16-277.333 277.333-277.333 68.693 0 131.84 25.173 180.48 66.987l11.52-11.947v-33.707l213.333-212.907 63.573 63.573-212.907 213.333zM405.333 362.667c-106.24 0-192 85.76-192 192s85.76 192 192 192c106.24 0 192-85.76 192-192s-85.76-192-192-192z" />
<glyph unicode="&#xe905;" glyph-name="cart1" d="M815.407 64h-606.814c-10.059 0-19.705 4.045-26.818 11.247s-11.108 16.969-11.108 27.153v691.2c0 10.184 3.996 19.951 11.108 27.153s16.759 11.247 26.818 11.247h606.814c10.061 0 19.708-4.046 26.82-11.247s11.106-16.969 11.106-27.153v-691.2c0-10.185-3.994-19.951-11.106-27.153s-16.759-11.247-26.82-11.247zM398.222 678.4h-75.852v-76.8c0-50.921 19.979-99.759 55.541-135.765s83.797-56.235 134.089-56.235c50.291 0 98.526 20.228 134.089 56.235s55.539 84.844 55.539 135.765v76.8h-75.849v-76.8c0-30.553-11.989-59.855-33.327-81.459-21.338-21.602-50.278-33.741-80.452-33.741s-59.115 12.139-80.452 33.741c-21.338 21.605-33.326 50.906-33.326 81.459v76.8z" />
<glyph unicode="&#xe906;" glyph-name="wishlist" d="M512 49.067l-61.867 56.32c-219.733 199.253-364.8 330.667-364.8 491.947 0 131.413 103.253 234.667 234.667 234.667 74.24 0 145.493-34.56 192-89.173 46.507 54.613 117.76 89.173 192 89.173 131.413 0 234.667-103.253 234.667-234.667 0-161.28-145.067-292.693-364.8-492.373l-61.867-55.893z" />
<glyph unicode="&#xe907;" glyph-name="profile" d="M682.667 618.667c0-94.434-76.233-170.667-170.667-170.667-94.435 0-170.667 76.233-170.667 170.667s76.231 170.667 170.667 170.667c94.434 0 170.667-76.231 170.667-170.667zM192 201.365c0 104.064 213.333 161.301 320 161.301s320-57.237 320-161.301v-52.032h-640v52.032z" />
<glyph unicode="&#xe908;" glyph-name="star" d="M506.893 230.857l260.789-157.402-69.206 296.658 230.405 199.6-303.409 25.741-118.579 279.778-118.578-279.778-303.409-25.741 230.405-199.6-69.206-296.658 260.788 157.402z" />
<glyph unicode="&#xe909;" d="M500.807 832.984h-281.095v-704.66h281.095v704.66z" />
<glyph unicode="&#xe90a;" d="M852.696 832.984h-281.095v-704.66h281.095v704.66z" />
<glyph unicode="&#xe90b;" d="M287.057 139.274h-67.345v-65.867h67.345v65.867z" />
<glyph unicode="&#xe90c;" d="M852.863 139.274h-67.345v-65.867h67.345v65.867z" />
<glyph unicode="&#xe90d;" d="M480.136 537.341h-45.47v-56.603h45.47v56.603z" />
<glyph unicode="&#xe90e;" d="M638.942 537.341h-45.472v-56.603h45.472v56.603z" />
<glyph unicode="&#xe90f;" glyph-name="lamp" d="M336.253 537.42h156.136v-459.994h-131.205v-49.557h311.848v49.557h-131.205v459.994h156.13l-19.28 82.328h-323.144l-19.28-82.328zM618.524 866.365h-202.838l-46.551-197.293h295.94l-46.551 197.293z" />
<glyph unicode="&#xe910;" glyph-name="sofa" d="M48.952 509.479c2.008 3.994 4.177 7.919 5.977 12.005 13.131 29.723 40.87 46.396 73.409 44.074 30.369-2.183 56.702-23.268 64.155-54.407 8.446-35.32 14.654-71.173 22.132-106.724 6.831-32.486 25.177-47.928 57.855-47.951 146.38-0.163 292.783-0.163 439.165 0 32.631 0.047 50.908 15.465 57.785 48.021 6.785 32.161 13.108 64.439 19.778 96.622 7.8 37.734 31.685 61.28 64.825 64.206 36.9 3.25 62.863-14.095 78.024-51.991 0.577-1.464 2.008-2.578 3.047-3.855 0-15.024 0-30.071 0-45.095-2.284-25.195-4.731-50.389-6.785-75.607-1.731-21.294-1.546-42.82-4.685-63.881-8.515-57.216-55.501-94.765-117.948-94.857-130.203-0.21-260.43-0.070-390.633-0.070-78.348 0-156.719-0.116-235.067 0.046-72.786 0.14-116.679 42.518-121.318 115.594-2.515 39.638-6.462 79.207-9.762 118.798 0.046 15.001 0.046 30.048 0.046 45.072zM244.411 201.848c-5.331-20.597-8.977-38.686-14.793-56.055-7.292-21.781-28.801-32.231-49.686-25.845-21.323 6.525-32.748 26.123-28.317 48.577 6.578 33.322 6.578 33.322 39.485 33.322 16.594 0 33.232 0 53.309 0zM739.594 201.918c28.015 0 52.685 0.139 77.355-0.21 2.747-0.046 7.408-2.484 7.893-4.574 3.3-14.49 8.331-29.259 7.822-43.772-0.646-19.273-17.815-33.576-36.739-35.295-17.792-1.602-35.516 9.288-41.447 27.517-5.655 17.416-9.462 35.458-14.885 56.334zM488.717 748.444c81.279 0 162.581 0.488 243.86-0.139 77.932-0.581 131.172-69.245 113.057-145.178-1.154-4.853-6.232-10.936-10.8-12.446-41.932-13.817-65.656-42.471-73.503-85.685-5.677-31.209-12.323-62.256-18.899-93.279-4.616-21.757-11.401-27.33-32.886-27.354-145.273-0.070-290.545-0.093-435.818 0-20.308 0.024-27.531 5.945-31.846 26.425-6.901 32.741-13.108 65.623-19.939 98.387-9.277 44.561-36.093 72.658-80.333 82.83-8.953 2.066-11.953 5.456-13.777 14.071-15.785 74.563 37.040 141.601 113.588 142.229 82.432 0.649 164.865 0.139 247.297 0.139z" />
<glyph unicode="&#xe911;" glyph-name="chair" d="M654.531 875.232c29.88-16.573 41.677-42.641 46.875-75.92 14.884-95.222 32.191-190.068 49.43-284.912 12.507-68.887-8.353-95.622-77.134-95.71-107.702-0.134-215.405-0.289-323.107 0.066-56.828 0.177-80.91 27.444-71.646 83.442 17.328 104.829 36.811 209.302 54.029 314.131 4.266 26.091 21.882 41.355 37.612 58.904 94.639 0 189.3 0 283.941 0zM271.527 363.134c25.481 17.084 50.23 19.48 75.956 19.413 112.191-0.354 224.38-0.243 336.57-0.066 25.616 0.045 50.719-1.131 72.069-17.327 9.152 8.164 7.62 18.837 10.197 27.955 11.93 42.020 50.23 74.366 92.707 77.584 22.771 1.73 40.032-7.144 43.254-30.618 2.977-21.543-9.22-36.672-30.946-38.892-31.791-3.239-39.5-22.075-38.722-49.874 0.822-29.619 0.888-59.326 0-88.943-1.334-44.727-30.747-72.659-75.557-72.792-60.493-0.155-121.009-0.911-181.481 0.443-20.439 0.466-25.748-5.325-25.637-25.67 0.311-62.164-0.689-62.142 61.693-62.164 17.595 0 35.279 0.887 52.763-0.445 21.128-1.619 36.034-12.978 35.768-35.275-0.245-21.832-13.973-34.721-35.834-34.832-98.994-0.511-197.987-0.489-296.982 0-21.882 0.111-35.568 12.955-35.879 34.787-0.289 22.341 14.573 34.233 35.701 35.232 29.636 1.397 59.45 1.775 89.041 0.088 21.038-1.197 25.459 6.567 25.437 26.29-0.067 61.522 0.799 61.522-61.783 61.522-49.497 0-98.993-0.243-148.49 0.066-40.7 0.266-70.514 28.309-72.18 69.354-1.332 32.902-0.555 65.87-0.311 98.816 0.178 24.339-9.553 39.647-35.279 42.819-24.837 3.062-38.811 17.438-33.435 42.486 5.443 25.314 25.348 30.838 48.742 26.401 56.228-10.671 83.886-47.567 92.618-106.36z" />
<glyph unicode="&#xe912;" glyph-name="table" d="M229.729 569.197c0-5.946 0-11.757 0-17.703 0-94.872 0-95.683 95.425-96.763 36.821-0.406 67.739-7.028 67.037-49.193-0.563-38.246-29.513-44.597-63.945-47.165-21.221-1.487-65.069 18.785-59.869-20.676 4.497-34.192-46.939-96.493 39.351-103.926 9.697-0.811 20.519-6.081 18.13-18.92-2.249-11.893-14.195-13.785-23.611-13.92-36.821-0.946-73.641-0.946-110.321-0.27-9.416 0.135-21.643 1.891-23.329 14.054-2.39 16.624 11.383 18.245 23.61 19.732 76.030 8.785 25.437 63.788 36.258 95.952 11.665 34.462-19.534 29.191-41.036 29.191-37.805 0.135-56.215 18.379-56.074 54.598 0 78.653 0.281 157.307-0.141 235.961-0.141 32.299 12.929 54.733 48.486 55.139 35.274 0.405 50.312-20.812 50.030-53.518-0.14-27.568 0-55.138 0-82.573zM818.159 570.273c0-5.946 0-11.757 0-17.703 0-94.872 0-95.683-95.425-96.763-36.821-0.406-67.739-7.028-67.037-49.193 0.563-38.246 29.513-44.598 63.945-47.165 21.221-1.487 65.069 18.785 59.869-20.678-4.497-34.191 46.939-96.492-39.351-103.925-9.697-0.811-20.519-6.081-18.13-18.92 2.249-11.893 14.195-13.785 23.611-13.92 36.821-0.946 73.641-0.946 110.321-0.27 9.416 0.135 21.644 1.891 23.329 14.054 2.39 16.624-11.383 18.245-23.61 19.732-76.030 8.785-25.437 63.788-36.258 95.952-11.665 34.462 19.534 29.191 41.036 29.191 37.805 0.135 56.215 18.379 56.074 54.598 0 78.653-0.281 157.307 0.141 235.961 0.141 32.299-12.929 54.733-48.485 55.139-35.275 0.405-50.313-20.812-50.031-53.518 0.14-27.568 0-55.138 0-82.573zM512.531 499.601c-74.063-59.193-134.213-24.866-194.503-2.838-32.043 11.758-19.675 40.408-18.269 61.897 1.967 31.758 18.832 57.031 54.527 61.76 28.108 3.784 56.919 4.055 85.447 4.19 79.825 0.541 159.509 0.405 239.334 0 43.708-0.271 74.204-17.433 83.339-62.032 9.135-44.733-10.4-62.166-54.809-79.465-54.529-21.217-100.906-21.082-158.385 10.676 0-79.465-0.563-151.227 0.281-222.853 0.422-36.489 30.918-21.758 50.312-24.866 12.368-2.028 26.561-2.838 26.983-17.298 0.422-15.407-14.897-16.894-26.561-17.029-44.972-0.811-89.943-0.811-134.916-0.135-13.492 0.27-32.323-0.135-30.355 19.326 1.264 13.243 16.863 16.623 29.231 14.73 43.707-6.486 50.453 15.407 49.047 51.22-2.529 62.030-0.702 124.603-0.702 202.716z" />
<glyph unicode="&#xe913;" glyph-name="plus" d="M1007.483 464.517h-478.966v478.967c0 9.121-7.396 16.516-16.517 16.516s-16.517-7.395-16.517-16.516v-478.967h-478.967c-9.121 0-16.516-7.396-16.516-16.517s7.395-16.517 16.516-16.517h478.967v-478.966c0-9.123 7.396-16.517 16.517-16.517s16.517 7.394 16.517 16.517v478.966h478.966c9.123 0 16.517 7.396 16.517 16.517s-7.394 16.517-16.517 16.517z" />
<glyph unicode="&#xe914;" glyph-name="arrow-right" d="M1017.231 464.408l-232.721 232.724c-8.359 9.762-23.050 10.9-32.812 2.538-9.762-8.36-10.902-23.052-2.54-32.813 0.782-0.91 1.628-1.76 2.54-2.538l192.925-193.162h-921.351c-12.852 0-23.272-10.417-23.272-23.272s10.42-23.272 23.272-23.272h921.351l-192.925-192.925c-9.762-8.363-10.902-23.054-2.54-32.816s23.054-10.899 32.812-2.536c0.911 0.778 1.761 1.628 2.54 2.536l232.724 232.724c9.021 9.076 9.021 23.733-0.003 32.812z" />
<glyph unicode="&#xe915;" glyph-name="chevron-thin-down" d="M891.802 660.019c13.926 13.722 36.301 13.722 50.125 0s13.875-35.891 0-49.613l-404.89-400.896c-13.824-13.722-36.198-13.722-50.125 0l-404.89 400.896c-13.824 13.722-13.824 35.891 0 49.613 13.875 13.722 36.301 13.722 50.125 0l379.853-365.619 379.802 365.619z" />
<glyph unicode="&#xe916;" glyph-name="chevron-thin-up" d="M132.198 261.581c-13.926-13.722-36.301-13.722-50.125 0s-13.875 35.891 0 49.613l404.89 400.896c13.824 13.722 36.198 13.722 50.125 0l404.89-400.896c13.824-13.722 13.824-35.891 0-49.613-13.875-13.722-36.301-13.722-50.074 0l-379.904 365.619-379.802-365.619z" />
<glyph unicode="&#xe917;" glyph-name="grid" d="M386.843 862.275h-221.054c-30.521 0-55.264-24.742-55.264-55.264v-221.054c0-30.521 24.742-55.263 55.264-55.263h221.054c30.521 0 55.263 24.742 55.263 55.263v221.054c0 30.521-24.742 55.264-55.263 55.264zM828.943 862.275h-221.056c-30.52 0-55.26-24.742-55.26-55.264v-221.054c0-30.521 24.74-55.263 55.26-55.263h221.056c30.52 0 55.26 24.742 55.26 55.263v221.054c0 30.521-24.74 55.264-55.26 55.264zM386.843 420.173h-221.054c-30.521 0-55.264-24.74-55.264-55.26v-221.056c0-30.52 24.742-55.26 55.264-55.26h221.054c30.521 0 55.263 24.74 55.263 55.26v221.056c0 30.52-24.742 55.26-55.263 55.26zM828.943 420.173h-221.056c-30.52 0-55.26-24.74-55.26-55.26v-221.056c0-30.52 24.74-55.26 55.26-55.26h221.056c30.52 0 55.26 24.74 55.26 55.26v221.056c0 30.52-24.74 55.26-55.26 55.26z" />
<glyph unicode="&#xe918;" glyph-name="list" d="M184.678 257.838h-124.343c-8.244 0-16.151-3.277-21.981-9.108-5.83-5.827-9.105-13.737-9.105-21.98v-124.344c0-8.243 3.275-16.148 9.105-21.98 5.83-5.827 13.737-9.103 21.981-9.103h124.343c8.245 0 16.152 3.277 21.981 9.103 5.83 5.832 9.105 13.737 9.105 21.98v124.344c0 8.243-3.275 16.154-9.105 21.98-5.83 5.832-13.736 9.108-21.981 9.108zM184.678 879.55h-124.343c-8.244 0-16.151-3.275-21.981-9.105s-9.105-13.736-9.105-21.981v-124.343c0-8.245 3.275-16.152 9.105-21.981s13.737-9.105 21.981-9.105h124.343c8.245 0 16.152 3.275 21.981 9.105s9.105 13.736 9.105 21.981v124.343c0 8.244-3.275 16.151-9.105 21.981s-13.736 9.105-21.981 9.105zM184.678 568.693h-124.343c-8.244 0-16.151-3.275-21.981-9.105s-9.105-13.736-9.105-21.981v-124.341c0-8.248 3.275-16.154 9.105-21.98 5.83-5.832 13.737-9.108 21.981-9.108h124.343c8.245 0 16.152 3.277 21.981 9.108 5.83 5.827 9.105 13.732 9.105 21.98v124.341c0 8.244-3.275 16.151-9.105 21.981s-13.736 9.105-21.981 9.105zM992.906 226.749h-621.713c-8.244 0-16.151-3.277-21.981-9.103-5.83-5.832-9.105-13.737-9.105-21.98v-62.172c0-8.243 3.275-16.154 9.105-21.98 5.83-5.832 13.736-9.108 21.981-9.108h621.713c8.243 0 16.154 3.277 21.98 9.108 5.832 5.827 9.108 13.737 9.108 21.98v62.172c0 8.243-3.277 16.148-9.108 21.98-5.827 5.827-13.737 9.103-21.98 9.103zM992.906 848.464h-621.713c-8.244 0-16.151-3.275-21.981-9.105s-9.105-13.736-9.105-21.981v-62.172c0-8.244 3.275-16.151 9.105-21.981s13.736-9.104 21.981-9.104h621.713c8.243 0 16.154 3.275 21.98 9.104 5.832 5.83 9.108 13.737 9.108 21.981v62.172c0 8.244-3.277 16.151-9.108 21.981-5.827 5.83-13.737 9.105-21.98 9.105zM992.906 537.607h-621.713c-8.244 0-16.151-3.275-21.981-9.105s-9.105-13.736-9.105-21.981v-62.172c0-8.243 3.275-16.148 9.105-21.98s13.736-9.103 21.981-9.103h621.713c8.243 0 16.154 3.272 21.98 9.103 5.832 5.832 9.108 13.737 9.108 21.98v62.172c0 8.244-3.277 16.151-9.108 21.981-5.827 5.83-13.737 9.105-21.98 9.105z" />
<glyph unicode="&#xe919;" glyph-name="search-small" d="M926.291 94.298l-158.298 157.011c61.446 76.614 91.2 173.856 83.149 271.733s-53.293 188.95-126.432 254.492c-73.139 65.542-168.605 100.571-266.776 97.885s-191.582-42.884-261.025-112.328c-69.444-69.443-109.641-162.854-112.328-261.025s32.343-193.637 97.885-266.776c65.542-73.139 156.615-118.381 254.492-126.432s195.119 21.702 271.733 83.149l157.011-157.018c3.968-4 8.685-7.174 13.888-9.338 5.197-2.163 10.771-3.283 16.403-3.283s11.213 1.12 16.41 3.283c5.203 2.163 9.92 5.338 13.888 9.338 7.686 7.955 11.987 18.592 11.987 29.658s-4.301 21.696-11.987 29.651zM469.329 192.006c-59.071 0-116.815 17.517-165.93 50.33-49.116 32.819-87.396 79.466-110.002 134.040s-28.52 114.627-16.996 172.562c11.524 57.936 39.969 111.153 81.739 152.922s94.986 70.214 152.922 81.739c57.935 11.524 117.987 5.61 172.562-16.996s101.22-60.886 134.040-110.002c32.813-49.116 50.33-106.86 50.33-165.93 0-79.212-31.462-155.178-87.475-211.189-56.011-56.013-131.978-87.475-211.189-87.475z" />
<glyph unicode="&#xe91a;" glyph-name="chevron-down" horiz-adv-x="1463" d="M171.886 936.814l-171.886-171.886 731.429-731.429 731.429 731.429-171.886 171.886-559.543-558.323-559.543 558.323z" />
<glyph unicode="&#xe91b;" glyph-name="chevron-up" horiz-adv-x="1463" d="M1290.971-40.814l171.886 171.886-731.429 731.428-731.429-731.428 171.886-171.886 559.543 558.323 559.543-558.323z" />
<glyph unicode="&#xe91c;" glyph-name="share" d="M725.333 339.904c-42.155 0-79.305-20.736-102.639-52.271l-201.731 103.296c3.349 11.418 5.703 23.249 5.703 35.733 0 16.93-3.472 33.028-9.469 47.838l211.12 127.043c23.497-27.574 58.031-45.46 97.015-45.46 70.583 0 128 57.417 128 128s-57.417 128-128 128c-70.583 0-128-57.417-128-128 0-16.266 3.349-31.695 8.905-46.020l-211.749-127.415c-23.475 26.754-57.512 44.014-95.822 44.014-70.583 0-128-57.415-128-127.999s57.417-128 128-128c42.851 0 80.627 21.346 103.872 53.769l201.067-102.963c-3.703-11.955-6.272-24.405-6.272-37.564 0-70.583 57.417-128 128-128s128 57.417 128 128c0 70.583-57.417 128-128 128z" />
<glyph unicode="&#xe91d;" glyph-name="close" d="M810.667 686.507l-60.16 60.16-238.507-238.507-238.507 238.507-60.16-60.16 238.507-238.507-238.507-238.507 60.16-60.16 238.507 238.507 238.507-238.507 60.16 60.16-238.507 238.507 238.507 238.507z" />
<glyph unicode="&#xe91e;" glyph-name="cart" d="M106.656 778.656c0 8.487 3.372 16.627 9.373 22.628s14.141 9.372 22.627 9.372h23.808c40.534 0 64.854-27.264 78.72-52.608 9.259-16.896 15.958-36.48 21.206-54.229 1.42 0.112 2.843 0.169 4.266 0.171h533.248c35.411 0 61.011-33.878 51.283-67.968l-77.99-273.451c-6.995-24.527-21.792-46.11-42.144-61.476-20.358-15.366-45.165-23.68-70.669-23.686h-253.781c-25.707 0-50.703 8.442-71.146 24.026-20.443 15.59-35.201 37.457-42.006 62.246l-32.427 118.272-53.76 181.248-0.042 0.342c-6.656 24.192-12.886 46.848-22.187 63.744-8.917 16.426-16.085 19.37-22.528 19.37h-23.851c-8.486 0-16.626 3.372-22.627 9.373s-9.373 14.141-9.373 22.627zM323.104 497.483l32.043-116.864c6.4-23.125 27.435-39.211 51.456-39.211h253.781c11.59 0.001 22.867 3.778 32.122 10.76s15.981 16.791 19.162 27.939l74.112 259.883h-504.829l41.557-140.246 0.597-2.261zM469.323 149.325c0-22.637-8.991-44.339-24.993-60.339-16.003-16.006-37.708-24.998-60.34-24.998s-44.337 8.992-60.34 24.998c-16.003 16-24.994 37.702-24.994 60.339 0 22.63 8.991 44.333 24.994 60.339 16.003 16 37.708 24.992 60.34 24.992s44.337-8.992 60.34-24.992c16.003-16.006 24.993-37.709 24.993-60.339zM405.323 149.325c0 5.658-2.248 11.085-6.248 15.085s-9.427 6.246-15.085 6.246c-5.658 0-11.084-2.246-15.085-6.246s-6.248-9.427-6.248-15.085c0-5.658 2.248-11.085 6.248-15.085s9.427-6.253 15.085-6.253c5.658 0 11.084 2.253 15.085 6.253s6.248 9.427 6.248 15.085zM767.981 149.325c0-22.637-8.992-44.339-24.992-60.339-16.006-16.006-37.709-24.998-60.346-24.998-22.63 0-44.334 8.992-60.337 24.998-16.003 16-24.993 37.702-24.993 60.339 0 22.63 8.99 44.333 24.993 60.339 16.003 16 37.707 24.992 60.337 24.992 22.637 0 44.339-8.992 60.346-24.992 16-16.006 24.992-37.709 24.992-60.339zM703.981 149.325c0 5.658-2.246 11.085-6.253 15.085-4 4-9.427 6.246-15.085 6.246s-11.078-2.246-15.085-6.246c-4-4-6.246-9.427-6.246-15.085s2.246-11.085 6.246-15.085c4.006-4 9.427-6.253 15.085-6.253s11.085 2.253 15.085 6.253c4.006 4 6.253 9.427 6.253 15.085z" />
<glyph unicode="&#xe91f;" glyph-name="zoom" d="M639.996 533.338h-128v128c0 11.316-4.495 22.168-12.497 30.17s-18.854 12.497-30.17 12.497c-11.316 0-22.168-4.495-30.17-12.497s-12.497-18.854-12.497-30.17v-128h-128c-11.316 0-22.168-4.495-30.17-12.497s-12.497-18.854-12.497-30.17c0-11.316 4.495-22.168 12.497-30.17s18.854-12.497 30.17-12.497h128v-128c0-11.313 4.495-22.167 12.497-30.167 8.001-8.006 18.854-12.499 30.17-12.499s22.168 4.493 30.17 12.499c8.002 8 12.497 18.854 12.497 30.167v128h128c11.313 0 22.167 4.495 30.167 12.497 8.006 8.001 12.499 18.854 12.499 30.17s-4.493 22.168-12.499 30.17c-8 8.002-18.854 12.497-30.167 12.497zM926.291 94.298l-158.298 157.011c61.446 76.614 91.2 173.856 83.149 271.733s-53.293 188.95-126.432 254.492c-73.139 65.542-168.605 100.571-266.776 97.885s-191.582-42.884-261.025-112.328c-69.444-69.443-109.641-162.854-112.328-261.025s32.343-193.637 97.885-266.776c65.542-73.139 156.615-118.381 254.492-126.432s195.119 21.702 271.733 83.149l157.011-157.018c3.968-4 8.685-7.174 13.888-9.338 5.197-2.163 10.771-3.283 16.403-3.283s11.213 1.12 16.41 3.283c5.203 2.163 9.92 5.338 13.888 9.338 7.686 7.955 11.987 18.592 11.987 29.658s-4.301 21.696-11.987 29.651zM469.329 192.006c-59.071 0-116.815 17.517-165.93 50.33-49.116 32.819-87.396 79.466-110.002 134.040s-28.52 114.627-16.996 172.562c11.524 57.936 39.969 111.153 81.739 152.922s94.986 70.214 152.922 81.739c57.935 11.524 117.987 5.61 172.562-16.996s101.22-60.886 134.040-110.002c32.813-49.116 50.33-106.86 50.33-165.93 0-79.212-31.462-155.178-87.475-211.189-56.011-56.013-131.978-87.475-211.189-87.475z" />
<glyph unicode="&#xe920;" horiz-adv-x="948" d="M841.224 945h-737.085c-35.176 0-63.694-28.516-63.694-63.694v-651.323c0-27.231 22.076-49.307 49.31-49.307h78.078v-200.518c0-6.982 4.79-13.054 11.582-14.677l58.886-14.071c2.306-0.554 4.708-0.554 7.014 0l66.96 16.001c2.306 0.55 4.71 0.55 7.016 0l66.951-16.001c2.306-0.554 4.71-0.554 7.016 0l66.951 16.001c2.306 0.55 4.71 0.55 7.016 0l66.958-16.001c2.306-0.554 4.71-0.554 7.016 0l66.962 16.001c2.306 0.55 4.707 0.55 7.013 0l66.966-16.001c2.306-0.554 4.71-0.554 7.016 0l66.962 16.001c2.306 0.55 4.71 0.55 7.016 0l66.973-16.001c2.306-0.55 4.707-0.55 7.013 0l58.899 14.074c6.793 1.623 11.583 7.691 11.583 14.674v898.467c0 36.658-29.719 66.376-66.378 66.376z" />
<glyph unicode="&#xe921;" horiz-adv-x="948" d="M104.139 945c-35.178 0-63.694-28.516-63.694-63.694v-651.323c0-27.231 22.076-49.307 49.31-49.307h78.078v700.631c0 35.176-28.518 63.694-63.694 63.694z" />
<glyph unicode="&#xe922;" horiz-adv-x="948" d="M841.231 945h-44.119v-976.752l-18.743-4.479 51.742-12.364c2.306-0.55 4.71-0.55 7.016 0l58.895 14.074c6.793 1.623 11.583 7.695 11.583 14.677v898.467c0 36.658-29.719 66.376-66.374 66.376z" />
<glyph unicode="&#xe923;" horiz-adv-x="948" d="M249.409 831.073c0 5.756 5.97 8.742 12.154 8.742h41.154c22.174 0 42.858-7.25 42.858-37.53 0-17.484-6.824-28.998-18.126-33.902 13.006-5.118 21.962-13.434 21.962-34.756v-4.478c0-33.262-18.55-45.204-42.646-45.204h-45.204c-7.462 0-12.154 4.050-12.154 8.53v138.598h0.002zM276.915 779.257h23.88c11.514 0 17.058 7.462 17.058 18.338 0 11.088-6.396 17.91-17.272 17.91h-23.668l0.002-36.248zM301.009 708.255c13.006 0 20.682 7.036 20.682 23.24v3.412c0 16.63-7.676 22.602-20.682 22.602h-24.094v-49.254h24.094z" />
<glyph unicode="&#xe924;" horiz-adv-x="948" d="M369.185 831.285c0 5.97 6.824 8.53 13.859 8.53 6.827 0 13.862-2.558 13.862-8.53v-138.598c0-5.758-7.035-8.742-13.862-8.742-7.035 0-13.859 2.984-13.859 8.742v138.598z" />
<glyph unicode="&#xe925;" horiz-adv-x="948" d="M434.673 683.945c-6.186 0-12.155 2.984-12.155 8.742v138.598c0 5.97 6.827 8.53 13.862 8.53 6.823 0 13.858-2.558 13.858-8.53v-123.032h52.031c5.541 0 8.313-5.97 8.313-12.154 0-5.97-2.772-12.154-8.313-12.154h-67.595z" />
<glyph unicode="&#xe926;" horiz-adv-x="948" d="M537.858 683.945c-6.186 0-12.155 2.984-12.155 8.742v138.598c0 5.97 6.827 8.53 13.862 8.53 6.823 0 13.858-2.558 13.858-8.53v-123.032h52.031c5.541 0 8.313-5.97 8.313-12.154 0-5.97-2.772-12.154-8.313-12.154h-67.595z" />
<glyph unicode="&#xe927;" horiz-adv-x="948" d="M752.166 684.158c-25.797 0.64-45.204 14.5-45.204 26.44 0 5.97 5.332 14.928 11.939 14.928 8.105 0 14.503-13.862 33.265-15.992v42.432c-19.403 7.25-41.366 15.564-41.366 42.858 0 27.080 20.044 38.808 41.366 41.58v5.97c0 2.772 3.197 5.33 7.251 5.33 3.622 0 7.251-2.558 7.251-5.33v-5.544c13.858-0.426 36.462-4.476 36.462-16.844 0-4.904-3.413-14.712-11.302-14.712-5.97 0-10.877 6.822-25.16 7.888v-37.528c18.974-7.038 40.296-16.632 40.296-45.63 0-26.226-16.414-41.366-40.296-45.204v-6.612c0-2.772-3.63-5.33-7.251-5.33-4.054 0-7.251 2.558-7.251 5.33v5.97zM753.873 780.324v32.196c-10.661-1.708-17.059-6.824-17.059-14.926 0-9.382 7.251-13.432 17.059-17.27zM764.958 746.846v-37.102c9.383 1.918 15.993 7.462 15.993 17.484 0 10.448-6.823 15.566-15.993 19.618z" />
<glyph unicode="&#xe928;" horiz-adv-x="948" d="M633.382 521.777h-386.456c-8.284 0-15-6.713-15-15s6.716-15 15-15h386.456c8.283 0 15 6.713 15 15s-6.717 15-15 15z" />
<glyph unicode="&#xe929;" horiz-adv-x="948" d="M633.382 396.963h-386.456c-8.284 0-15-6.713-15-15s6.716-15 15-15h386.456c8.283 0 15 6.713 15 15s-6.717 15-15 15z" />
<glyph unicode="&#xe92a;" horiz-adv-x="948" d="M633.382 272.187h-386.456c-8.284 0-15-6.717-15-15 0-8.287 6.716-15.003 15-15.003h386.456c8.283 0 15 6.717 15 15.003 0 8.283-6.717 15-15 15z" />
<glyph unicode="&#xe92b;" horiz-adv-x="948" d="M633.382 147.407h-386.456c-8.284 0-15-6.713-15-15s6.716-15 15-15h386.456c8.283 0 15 6.713 15 15s-6.717 15-15 15z" />
<glyph unicode="&#xe92c;" horiz-adv-x="948" d="M801.564 521.777h-97.231c-8.283 0-15-6.713-15-15s6.717-15 15-15h97.231c8.283 0 15 6.713 15 15s-6.717 15-15 15z" />
<glyph unicode="&#xe92d;" horiz-adv-x="948" d="M801.564 396.963h-97.231c-8.283 0-15-6.713-15-15s6.717-15 15-15h97.231c8.283 0 15 6.713 15 15s-6.717 15-15 15z" />
<glyph unicode="&#xe92e;" horiz-adv-x="948" d="M801.564 272.187h-97.231c-8.283 0-15-6.717-15-15 0-8.287 6.717-15.003 15-15.003h97.231c8.283 0 15 6.717 15 15.003 0 8.283-6.717 15-15 15z" />
<glyph unicode="&#xe92f;" horiz-adv-x="948" d="M841.262 960h-737.086c-43.392 0-78.694-35.302-78.694-78.692v-651.321c0-35.461 28.848-64.307 64.31-64.307h7.614c8.284 0 15 6.713 15 15s-6.716 15-15 15h-7.614c-18.918 0-34.31 15.39-34.31 34.308v651.321c0 26.85 21.844 48.694 48.694 48.694s48.694-21.842 48.694-48.694v-901.147c0-13.983 9.498-26.017 23.096-29.267l58.886-14.071c4.574-1.096 9.41-1.092 13.986 0l67.002 16.001 66.951-16.001c4.578-1.096 9.413-1.092 13.991 0l66.992 16.001 66.962-16.001c4.574-1.096 9.409-1.092 13.987 0l67.004 16.001 66.966-16.001c4.578-1.096 9.409-1.092 13.987 0l67.008 16.001 66.962-15.997c2.291-0.55 4.65-0.823 7.005-0.823s4.707 0.273 6.994 0.819l58.899 14.071c13.596 3.25 23.097 15.284 23.097 29.267v898.463c-0.004 44.872-36.511 81.376-81.381 81.376zM892.568-19.93l-58.941-14.071-66.973 16.001c-4.574 1.096-9.409 1.096-13.987 0l-67.004-16.001-66.966 16.001c-4.578 1.092-9.413 1.092-13.987 0l-67.004-16.001-66.966 16.001c-4.574 1.092-9.409 1.088-13.983 0l-66.992-16.001-66.953 16.001c-2.288 0.546-4.638 0.819-6.992 0.819-2.352 0-4.706-0.277-6.994-0.819l-67.002-16.001-58.954 14.158v901.151c0 1.262-0.036 2.516-0.096 3.766-0.020 0.406-0.052 0.808-0.078 1.212-0.052 0.844-0.114 1.686-0.192 2.524-0.044 0.466-0.098 0.928-0.15 1.39-0.088 0.778-0.186 1.554-0.296 2.326-0.068 0.468-0.136 0.934-0.212 1.398-0.126 0.78-0.268 1.556-0.416 2.33-0.084 0.432-0.162 0.866-0.254 1.296-0.186 0.886-0.394 1.766-0.61 2.64-0.074 0.3-0.138 0.604-0.216 0.904-0.302 1.164-0.632 2.318-0.986 3.462-0.090 0.288-0.19 0.57-0.284 0.856-0.276 0.856-0.562 1.71-0.866 2.554-0.148 0.41-0.308 0.816-0.462 1.222-0.272 0.714-0.55 1.426-0.842 2.13-0.178 0.432-0.362 0.86-0.548 1.286-0.296 0.682-0.604 1.358-0.92 2.030-0.194 0.414-0.388 0.828-0.59 1.238-0.348 0.71-0.712 1.41-1.082 2.108-0.186 0.35-0.364 0.704-0.554 1.052-0.532 0.97-1.082 1.926-1.652 2.87-0.040 0.064-0.074 0.132-0.114 0.196-0.61 1.002-1.246 1.988-1.9 2.96-0.214 0.318-0.438 0.628-0.656 0.942-0.456 0.656-0.916 1.31-1.39 1.952-0.262 0.356-0.532 0.706-0.8 1.056-0.252 0.33-0.494 0.666-0.75 0.99h675.308c28.331 0 51.378-23.048 51.378-51.378l-0.072-898.55z" />
<glyph unicode="&#xe930;" horiz-adv-x="1455" d="M1226.116 513.773c114.704 0 207.689 92.987 207.689 207.692s-92.985 207.693-207.689 207.693c-114.71 0-207.694-92.987-207.694-207.693s92.985-207.692 207.694-207.692z" />
<glyph unicode="&#xe931;" horiz-adv-x="1455" d="M1257.731 926.789c38.54-37.706 62.459-90.294 62.459-148.471 0-114.707-92.985-207.693-207.694-207.693-10.725 0-21.261 0.813-31.55 2.382 37.451-36.638 88.705-59.224 145.236-59.224 114.704 0 207.694 92.988 207.694 207.693 0 103.981-76.412 190.114-176.144 205.314z" />
<glyph unicode="&#xe932;" horiz-adv-x="1455" d="M1018.4 721.464c0 2.222 0.038 4.436 0.108 6.642h-896.376c-55.708 0-100.869-45.161-100.869-100.869v-559.534c0-55.711 45.161-100.869 100.869-100.869h1003.098c55.706 0 100.864 45.158 100.864 100.869v446.068c-114.704-0.003-207.694 92.985-207.694 207.693z" />
<glyph unicode="&#xe933;" horiz-adv-x="1455" d="M1112.425 547.631v-259.887c0-145.834-118.223-264.057-264.057-264.057h-816.999c16.351-33.646 50.854-56.843 90.777-56.843h1003.096c55.706 0 100.869 45.164 100.869 100.869v446.069c-41.968 0-81.025 12.445-113.686 33.849z" />
<glyph unicode="&#xe934;" horiz-adv-x="1455" d="M1121.086 158.397h-124.68c-1.617 0-2.932 1.315-2.932 2.932v67.999c0 1.622 1.315 2.937 2.932 2.937h124.68c1.622 0 2.932-1.315 2.932-2.937v-67.999c0.005-1.617-1.31-2.932-2.932-2.932z" />
<glyph unicode="&#xe935;" horiz-adv-x="1455" d="M1121.059 232.265h-14.476c-5.616-26.284-15.15-51.125-27.95-73.868h42.426c1.622 0 2.937 1.315 2.937 2.932v67.999c0 1.622-1.315 2.937-2.937 2.937z" />
<glyph unicode="&#xe936;" horiz-adv-x="1455" d="M1299.37 812.24l-101.91-101.907c-2.274-2.273-5.961-2.273-8.235 0l-36.379 36.379c-2.269 2.273-5.955 2.273-8.23 0l-46.172-46.173c-2.274-2.274-2.274-5.96 0-8.233l90.786-90.788c2.274-2.273 5.961-2.273 8.235 0l156.316 156.316c2.269 2.273 2.269 5.96 0 8.233l-46.177 46.173c-2.28 2.277-5.966 2.277-8.235 0z" />
<glyph unicode="&#xe937;" horiz-adv-x="1455" d="M1318.917 800.947c0.803-7.435 1.218-14.989 1.218-22.637 0-22.433-3.557-44.033-10.138-64.272l43.795 43.794c2.274 2.274 2.274 5.96 0 8.233l-34.875 34.881z" />
<glyph unicode="&#xe938;" horiz-adv-x="1455" d="M1075.189 578.737h-1053.926v-137.083h1204.831v72.090c-59.441 0-113.050 24.971-150.905 64.993z" />
<glyph unicode="&#xe939;" horiz-adv-x="1455" d="M1112.42 547.631v-105.939h113.686v72.090c-0.016 0 0.016 0 0 0-41.952 0.009-81.036 12.454-113.686 33.849z" />
<glyph unicode="&#xe93a;" horiz-adv-x="1455" d="M508.579 216.63c-11.772 0-21.315-9.539-21.315-21.315s9.544-21.315 21.315-21.315h87.718c11.771 0 21.315 9.539 21.315 21.315s-9.545 21.315-21.315 21.315h-87.718z" />
<glyph unicode="&#xe93b;" horiz-adv-x="1455" d="M669.313 216.63c-11.771 0-21.315-9.539-21.315-21.315s9.545-21.315 21.315-21.315h87.719c11.771 0 21.315 9.539 21.315 21.315s-9.545 21.315-21.315 21.315h-87.719z" />
<glyph unicode="&#xe93c;" horiz-adv-x="1455" d="M829.947 216.63c-11.771 0-21.315-9.539-21.315-21.315s9.545-21.315 21.315-21.315h87.719c11.771 0 21.315 9.539 21.315 21.315s-9.545 21.315-21.315 21.315h-87.719z" />
<glyph unicode="&#xe93d;" horiz-adv-x="1455" d="M996.46 253.58c-13.371 0-24.247-10.876-24.247-24.253v-67.999c0-13.371 10.876-24.247 24.247-24.247h124.68c13.377 0 24.253 10.876 24.253 24.247v67.999c0 13.377-10.881 24.253-24.253 24.253h-124.68zM1102.762 179.712h-87.918v31.232h87.918v-31.232z" />
<glyph unicode="&#xe93e;" horiz-adv-x="1455" d="M1212.594 586.44l156.322 156.319c10.601 10.606 10.601 27.773-0.005 38.377l-46.161 46.161c-10.596 10.61-27.777 10.63-38.389 0.011l-90.953-90.95-25.428 25.425c-10.585 10.575-27.799 10.567-38.378-0.003l-46.166-46.17c-10.606-10.601-10.617-27.776-0.005-38.385l90.78-90.774c10.606-10.626 27.799-10.615 38.384-0.011zM1148.793 720.678l25.417-25.411c10.606-10.624 27.794-10.615 38.384-0.011l90.953 90.951 24.263-24.261-134.403-134.403-68.877 68.875 24.263 24.26z" />
<glyph unicode="&#xe93f;" horiz-adv-x="1455" d="M1226.148 950.474c-57.969 0-113.287-21.708-155.756-61.122-8.629-8.007-9.13-21.492-1.126-30.123 8.009-8.632 21.493-9.132 30.127-1.126 34.563 32.073 79.576 49.737 126.755 49.737 102.766 0 186.379-83.609 186.379-186.377s-83.612-186.377-186.379-186.377c-102.772 0-186.379 83.609-186.379 186.377 0 20.673 3.358 40.975 9.981 60.335 3.805 11.141-2.134 23.26-13.274 27.065-11.14 3.803-23.256-2.134-27.066-13.273-5.131-15.001-8.666-30.451-10.58-46.173h-876.646c-67.372 0.005-122.185-54.81-122.185-122.182v-559.533c0-67.374 54.813-122.185 122.185-122.185h1003.094c67.374 0 122.185 54.811 122.185 122.185v150.426c0 11.771-9.545 21.315-21.315 21.315-11.776 0-21.315-9.545-21.315-21.315v-150.426c0-43.87-35.689-79.554-79.554-79.554h-1003.094c-43.865 0-79.553 35.689-79.553 79.554v352.66h122.492c11.772 0 21.316 9.543 21.316 21.317s-9.544 21.316-21.316 21.316h-122.492v94.452h1023.848c36.498-35.543 84.782-59.042 138.353-64.010v-30.445h-940.236c-11.772 0-21.316-9.541-21.316-21.316s9.544-21.314 21.316-21.314h940.236v-102.766c0-11.776 9.545-21.315 21.315-21.315s21.315 9.539 21.315 21.315v175.841c116.321 10.789 207.694 108.938 207.694 228.028 0 126.275-102.734 229.009-229.010 229.009zM42.632 627.236c0 43.868 35.688 79.553 79.553 79.553h875.418c2.479-39.007 14.767-75.392 34.423-106.709h-989.393v27.156z" />
<glyph unicode="&#xe940;" horiz-adv-x="1455" d="M1019.225 885.474h-874.922c-13.42 0-24.303-10.882-24.303-24.303v-510.37h72.909c26.843 0 48.606-21.757 48.606-48.602s-21.765-48.608-48.606-48.608h-72.909v-72.909c0-13.42 10.882-24.301 24.303-24.301h899.223v704.79c0 13.42-10.881 24.303-24.301 24.303z" />
<glyph unicode="&#xe941;" horiz-adv-x="1455" d="M1335.113 496.631h-291.641v-340.245h388.851v243.033c0 53.688-43.52 97.212-97.21 97.212z" />
<glyph unicode="&#xe942;" horiz-adv-x="1455" d="M1024 421.053h272.977c27.831 0 50.392-21.935 50.392-48.996v-220.478h-323.368v269.474z" />
<glyph unicode="&#xe943;" horiz-adv-x="1455" d="M1237.897 788.263h-194.425v-97.214h267.339v24.303c0 40.27-32.644 72.911-72.914 72.911z" />
<glyph unicode="&#xe944;" horiz-adv-x="1455" d="M1335.113 496.627l-48.608 194.426h-243.033v-194.426h291.641z" />
<glyph unicode="&#xe945;" horiz-adv-x="1455" d="M1335.156 399.419h97.215v-97.21h-48.602c-26.85 0-48.608 21.757-48.608 48.602v48.608h-0.005z" />
<glyph unicode="&#xe946;" horiz-adv-x="1455" d="M1213.596 326.527c-73.248 0-136.973-40.545-170.124-100.374v-69.751h362.868c-11.981 95.884-93.615 170.124-192.744 170.124z" />
<glyph unicode="&#xe947;" horiz-adv-x="1455" d="M1355.366 264.947v-108.571h50.979c-5.217 41.747-23.654 79.371-50.979 108.571z" />
<glyph unicode="&#xe948;" horiz-adv-x="1455" d="M1213.623 10.547c67.11 0 121.516 54.401 121.516 121.516 0 67.11-54.407 121.516-121.516 121.516-67.115 0-121.516-54.407-121.516-121.516 0-67.115 54.401-121.516 121.516-121.516z" />
<glyph unicode="&#xe949;" horiz-adv-x="1455" d="M1140.687 618.144h164.045l-18.227 72.909h-243.033v-194.426h72.909v97.214c0 13.42 10.881 24.303 24.307 24.303z" />
<glyph unicode="&#xe94a;" horiz-adv-x="1455" d="M411.64 326.527c-61.37 0-116.012-28.5-151.64-72.909h-140v-72.909c0-13.42 10.882-24.301 24.303-24.301h899.223v97.215h-480.245c-35.629 44.404-90.272 72.903-151.641 72.903z" />
<glyph unicode="&#xe94b;" horiz-adv-x="1455" d="M411.622 10.547c67.112 0 121.517 54.401 121.517 121.516 0 67.11-54.405 121.516-121.517 121.516s-121.517-54.407-121.517-121.516c0-67.115 54.405-121.516 121.517-121.516z" />
<glyph unicode="&#xe94c;" horiz-adv-x="1455" d="M1353.291 518.039l-37.683 150.731c10.305 2.189 18.033 11.329 18.033 22.28v24.303c0 52.767-42.933 95.694-95.695 95.694h-171.639v50.129c0 25.965-21.121 47.088-47.088 47.088h-874.92c-25.965 0-47.088-21.122-47.088-47.088v-413.157c0-12.582 10.2-22.785 22.785-22.785s22.785 10.2 22.785 22.785v413.157c0 0.838 0.679 1.518 1.518 1.518h874.915c0.841 0 1.52-0.68 1.52-1.518v-413.163c0-12.582 10.202-22.785 22.787-22.785 12.579 0 22.781 10.201 22.781 22.785v25.829l268.897-0.003c33.075-0.020 61.16-21.731 70.807-51.644h-70.85c-12.584 0-22.787-10.202-22.787-22.787v-48.602c0-39.37 32.024-71.394 71.394-71.394h25.821v-100.25h-59.575c-19.569 56.509-73.291 97.215-136.37 97.215-63.084 0-116.801-40.707-136.37-97.215h-10.973v171.644c0 12.579-10.197 22.781-22.781 22.781s-22.787-10.197-22.787-22.781v-171.639h-472.722c-19.571 56.509-73.29 97.215-136.371 97.215s-116.802-40.707-136.37-97.215h-130.967c-0.839 0-1.518 0.679-1.518 1.514v50.127h98.732c12.582 0 22.785 10.202 22.785 22.787 0 12.579-10.2 22.787-22.785 22.787h-218.728c-12.582 0-22.785-10.202-22.785-22.787s10.2-22.787 22.785-22.787h74.429v-50.127c0-25.961 21.122-47.088 47.088-47.088h123.075c-0.005-0.507-0.040-1.008-0.040-1.514 0-79.57 64.735-144.303 144.299-144.303s144.299 64.733 144.299 144.303c0 0.512-0.032 1.008-0.038 1.514h513.482c-0.005-0.507-0.038-1.008-0.038-1.514 0-79.57 64.733-144.303 144.298-144.303s144.298 64.733 144.298 144.303c0 0.512-0.032 1.008-0.038 1.514h74.472c12.579 0 22.781 10.202 22.781 22.787v243.033c0.005 60.001-44.264 109.857-101.861 118.626zM1066.307 668.267h202.456l37.214-148.858h-239.67v148.858zM1237.946 765.479c27.643 0 50.127-22.487 50.127-50.126v-1.518h-221.766v51.644h171.639zM411.636 33.345c-54.44 0-98.732 44.285-98.732 98.73s44.292 98.735 98.732 98.735c54.441 0 98.732-44.291 98.732-98.735s-44.291-98.73-98.732-98.73zM1213.645 33.345c-54.439 0-98.73 44.285-98.73 98.73s44.291 98.735 98.73 98.735c54.439 0 98.73-44.291 98.73-98.735s-44.291-98.73-98.73-98.73zM1383.769 324.985c-14.239 0-25.826 11.582-25.826 25.821v25.826h51.647v-51.647h-25.821z" />
<glyph unicode="&#xe94d;" horiz-adv-x="1455" d="M411.615 179.157c-25.966 0-47.088-21.121-47.088-47.088s21.122-47.088 47.088-47.088c25.965 0 47.088 21.121 47.088 47.088s-21.122 47.088-47.088 47.088z" />
<glyph unicode="&#xe94e;" horiz-adv-x="1455" d="M1213.612 179.157c-25.961 0-47.088-21.121-47.088-47.088s21.127-47.088 47.088-47.088c25.966 0 47.088 21.121 47.088 47.088s-21.121 47.088-47.088 47.088z" />
<glyph unicode="&#xe94f;" horiz-adv-x="1455" d="M583.265 253.586c0-12.584 10.197-22.787 22.781-22.787h340.243c12.584 0 22.787 10.202 22.787 22.787 0 12.579-10.202 22.781-22.787 22.781h-340.243c-12.584 0-22.781-10.202-22.781-22.781z" />
<glyph unicode="&#xe950;" horiz-adv-x="1455" d="M71.417 328.009h291.64c12.582 0 22.785 10.202 22.785 22.787 0 12.579-10.2 22.781-22.785 22.781h-291.64c-12.582 0-22.785-10.197-22.785-22.781s10.203-22.787 22.785-22.787z" />
<glyph unicode="&#xe951;" horiz-adv-x="1455" d="M760.077 682.854l-202.617-202.617-105.407 105.406c-8.899 8.899-23.325 8.899-32.221 0-8.899-8.899-8.899-23.322 0-32.221l121.519-121.518c4.446-4.451 10.278-6.673 16.109-6.673 5.826 0 11.657 2.223 16.109 6.673l218.726 218.729c8.898 8.899 8.898 23.322 0 32.221-8.893 8.896-23.32 8.896-32.218 0z" />
<glyph unicode="&#xe952;" horiz-adv-x="948" d="M139.199 420.166l7.452 8.833h672.253c20.165 0 37.179-15.011 39.686-35.021l27.614-219.997-15.625-53.005 27.675-43 8.412-67.008-8.727 0.004c2.996-23.882-15.622-44.988-39.689-44.988l-761.946-7.509c-24.068 0-42.686 21.102-39.688 44.984l42.894 381.687c2.512 20.010 19.524 35.021 39.691 35.021z" />
<glyph unicode="&#xe953;" horiz-adv-x="948" d="M868.826-49.034h-789.327c-24.080 0-42.7 21.102-39.7 44.984l10.296 82.026 22.83 40.088-10.78 55.918 27.614 219.997c2.52 20.002 19.52 35.021 39.7 35.021h17.16l-46.821-373.047c-3-23.882 15.62-44.98 39.7-44.98h767.149l1.877-15.022c3-23.882-15.618-44.984-39.701-44.984z" />
<glyph unicode="&#xe954;" horiz-adv-x="948" d="M898.203 77.976h-130.063c-5.518 0-10.001-4.483-10.001-10.001v-117.009h-99.999v117.009c0 5.518-4.479 10.001-10.001 10.001h-598.065l23.336 45.705-11.296 50.301h102.981c5.46 0 9.92 4.38 10 9.842l3.68 245.176h100.041l-3.7-244.857c-0.080-5.579 4.42-10.16 10-10.16h601.046l7.024-56.005-12.106-19.49 17.124-20.51z" />
<glyph unicode="&#xe955;" horiz-adv-x="948" d="M178.791 428.999h40l-3.68-245.176c-0.080-5.461-4.54-9.842-10-9.842h-40c5.46 0 9.92 4.38 10 9.842l3.68 245.176z" />
<glyph unicode="&#xe956;" horiz-adv-x="948" d="M898.207 77.961h-130.059c-5.518 0-10.001-4.479-10.001-10.001v40.004c0 5.518 4.483 10.001 10.001 10.001h125.042l5.018-40.004z" />
<glyph unicode="&#xe957;" horiz-adv-x="948" d="M648.143 117.995h-531.514c-4.814 0-8.538 4.221-7.938 9l5.904 47.005h-52.48l-12.040-96.006h598.065c5.522 0 10.001-4.483 10.001-10.001v40c0.004 5.526-4.475 10.001-9.997 10.001z" />
<glyph unicode="&#xe958;" horiz-adv-x="948" d="M658.148 10.964h99.999v-60.006h-99.999v60.006z" />
<glyph unicode="&#xe959;" horiz-adv-x="948" d="M191.926 631.578c0 114.544 39.322 214.719 126.243 269.403 44.44 27.958 97.396 44.019 155.958 44.019 173.102 0 297.229-140.334 297.229-313.445 0-196.105-169.855-378.809-252.882-455.371-19.107-17.62-36.416-24.8-43.198-30.045-2.332-1.809-5.325 0.489-7.661 2.298-36.238 28.027-275.689 241.903-275.689 483.14z" />
<glyph unicode="&#xe95a;" horiz-adv-x="948" d="M518.546 176.151c-19.118-17.601-33.621-29.601-40.399-34.843-2.34-1.82-5.583-1.82-7.923 0-36.219 28.023-293.261 248.999-293.261 490.235 0 114.548 54.34 214.735 141.261 269.419-59.661-57.404-95.261-140.71-95.261-233.417 0-241.236 257.042-462.212 293.261-490.235 0.702-0.561 1.502-0.941 2.321-1.161z" />
<glyph unicode="&#xe95b;" horiz-adv-x="948" d="M694.173 631.577c0-50.562-17.055-97.14-45.723-134.296-40.232-52.137-103.337-76.739-174.281-76.739-121.502 0-207.873 94.015-207.873 215.525 0 70.959 21.462 129.582 73.609 169.814 37.15 28.662 83.716 45.711 134.264 45.711 121.503 0 220.005-98.505 220.005-220.016z" />
<glyph unicode="&#xe95c;" horiz-adv-x="948" d="M648.412 497.307c-40.22-52.144-103.322-85.728-174.262-85.728-121.501 0-220.002 98.509-220.002 220.017 0 70.965 33.6 134.070 85.741 174.292-28.68-37.142-45.741-83.726-45.741-134.29 0-121.51 98.502-220.015 220.002-220.015 50.559 0 97.121 17.040 134.262 45.723z" />
<glyph unicode="&#xe95d;" horiz-adv-x="948" d="M923.386-2.192l-22.289 177.573c-0.011 0.155-0.038 0.311-0.057 0.463l-12.739 101.486c-1.032 8.222-8.53 14.052-16.748 13.016-8.222-1.032-14.048-8.533-13.016-16.752l10.623-84.62h-315.51c28.361 27.849 62.688 64.592 96.537 108.335 30.508 39.428 55.918 78.359 76.224 116.679h92.444c12.576 0 23.241-9.409 24.807-21.887l6.095-48.564c0.952-7.589 7.415-13.134 14.863-13.134 0.626 0 1.255 0.038 1.889 0.118 8.219 1.032 14.044 8.533 13.012 16.752l-6.095 48.564c-3.447 27.455-26.908 48.155-54.572 48.155h-77.547c29.943 64.58 45.064 127.302 45.064 187.565 0 88.594-31.149 170.932-87.707 231.846-57.841 62.291-137.576 96.597-224.518 96.597-59.066 0-115.741-16.009-163.904-46.295-7.012-4.41-9.124-13.671-4.712-20.683s13.666-9.127 20.684-4.715c43.37 27.274 94.524 41.691 147.932 41.691 160.897 0 282.226-128.301 282.226-298.441 0-61.682-17.253-126.55-51.439-193.872-19.577-38.514-46.77-81.192-78.473-122.015-65.968-85.257-133.359-142.776-152.314-158.28-18.948 15.5-86.342 73.019-152.316 158.28-30.87 39.872-58.148 81.981-78.477 122.027-34.182 67.319-51.434 132.183-51.434 193.861 0 82.204 29.038 158.073 81.761 213.635 5.704 6.009 5.456 15.503-0.554 21.207-6.008 5.704-15.504 5.455-21.206-0.554-58.038-61.16-90.001-144.364-90.001-234.287 0-60.265 15.122-122.983 45.065-187.563h-77.549c-27.666 0-51.126-20.704-54.572-48.155l-27.61-219.997c-0.020-0.155-0.044-0.307-0.058-0.463l-22.288-177.573c-4.648-30.436 21.604-62.164 54.572-61.853h789.337c30.777-0.823 58.986 29.18 54.572 61.853zM394.642 188.97h-104.404l2.586 115.261c1.752-2.306 3.494-4.612 5.28-6.925 33.848-43.744 68.175-80.483 96.538-108.335zM60.73-25.585c-4.812 5.458-6.964 12.436-6.058 19.657l8.646 68.889h322.829c8.283 0 15 6.717 15 15.003 0 8.283-6.717 15-15 15h-319.063l8.284 66.006h89.735c13.584 0 24.798 11.044 24.998 24.614l1.234 82.167c0.126 8.283-6.49 15.102-14.772 15.223-0.078 0-0.154 0.004-0.23 0.004-8.178 0-14.87-6.569-14.994-14.776l-1.16-77.232h-81.045l25.496 203.131c1.566 12.478 12.23 21.887 24.806 21.887h34.12l-1.166-77.76c-0.126-8.287 6.49-15.102 14.772-15.227 0.078 0 0.154 0 0.23 0 8.178 0 14.87 6.569 14.994 14.776l1.174 78.211h28.322c12.122-22.877 26.078-45.974 41.843-69.26l-3.598-160.381c-0.098-6.751 2.46-13.119 7.2-17.928 4.736-4.805 11.056-7.449 17.798-7.449h141.347c20.92-18.891 34.217-29.26 34.543-29.514 3.868-2.989 8.499-4.487 13.13-4.487s9.265 1.498 13.126 4.487c0.33 0.254 13.631 10.619 34.547 29.51h351.103l8.287-66.002h-113.061c-13.786 0-25.001-11.215-25.001-25.005v-102.006h-70v102.006c0 13.79-11.215 25.005-25.001 25.005h-192c-8.283 0-15-6.717-15-15.003 0-8.283 6.717-15 15-15h187.001v-97.007h-563.672c-7.274 0-13.932 3.008-18.746 8.461zM887.561-25.585c-4.813-5.458-11.473-8.461-18.747-8.461h-95.668v97.007h111.825l8.647-68.889c0.906-7.221-1.244-14.199-6.057-19.657z" />
<glyph unicode="&#xe95e;" horiz-adv-x="948" d="M474.112 396.557c129.582 0 235.004 105.43 235.004 235.019s-105.423 235.017-235.004 235.017c-129.58 0-235.001-105.428-235.001-235.017s105.421-235.019 235.001-235.019zM474.112 836.591c113.042 0 205.005-91.969 205.005-205.015s-91.963-205.015-205.005-205.015c-113.038 0-205.001 91.97-205.001 205.015s91.963 205.015 205.001 205.015z" />
<glyph unicode="&#xe95f;" glyph-name="location-pin" d="M512.010 874.687c-165.12 0-298.666-133.546-298.666-298.666 0-224 298.666-554.664 298.666-554.664s298.665 330.664 298.665 554.664c0 165.12-133.542 298.666-298.665 298.666zM512.010 469.354c-58.88 0-106.666 47.787-106.666 106.667s47.786 106.666 106.666 106.666c58.88 0 106.667-47.786 106.667-106.666s-47.787-106.667-106.667-106.667z" />
<glyph unicode="&#xf08a;" glyph-name="heart-o" d="M950.857 610.286c0 160.571-108.571 194.286-200 194.286-85.143 0-181.143-92-210.857-127.429-13.714-16.571-42.286-16.571-56 0-29.714 35.429-125.714 127.429-210.857 127.429-91.429 0-200-33.714-200-194.286 0-104.571 105.714-201.714 106.857-202.857l332-320 331.429 319.429c1.714 1.714 107.429 98.857 107.429 203.429zM1024 610.286c0-137.143-125.714-252-130.857-257.143l-356-342.857c-6.857-6.857-16-10.286-25.143-10.286s-18.286 3.429-25.143 10.286l-356.571 344c-4.571 4-130.286 118.857-130.286 256 0 167.429 102.286 267.429 273.143 267.429 100 0 193.714-78.857 238.857-123.429 45.143 44.571 138.857 123.429 238.857 123.429 170.857 0 273.143-100 273.143-267.429z" />
</font>
</defs>
</svg>
