<svg width="25" height="27" viewBox="0 0 25 27" fill="#c2c2c2" xmlns="http://www.w3.org/2000/svg">
<path d="M3.67028 14.2339L3.86677 14.001H21.5922C22.1239 14.001 22.5725 14.3968 22.6386 14.9244L23.3667 20.7251L22.9547 22.1227L23.6844 23.2565L23.9062 25.0233L23.6761 25.0232C23.7551 25.6529 23.2642 26.2094 22.6296 26.2094L2.53922 26.4074C1.90461 26.4074 1.4137 25.851 1.49275 25.2213L2.62375 15.1573C2.68999 14.6297 3.13855 14.2339 3.67028 14.2339Z" fill="#a1a1a1"/>
<path d="M22.9085 26.6054H2.09618C1.46126 26.6054 0.970294 26.049 1.0494 25.4193L1.32088 23.2565L1.92284 22.1995L1.6386 20.7251L2.36671 14.9244C2.43316 14.397 2.88141 14.001 3.4135 14.001H3.86597L2.63144 23.8372C2.55234 24.4669 3.0433 25.0232 3.67823 25.0232H23.9058L23.9553 25.4193C24.0344 26.049 23.5435 26.6054 22.9085 26.6054Z" fill="#a1a1a1"/>
<path d="M23.6831 23.2565H20.2537C20.1082 23.2565 19.99 23.3747 19.99 23.5202V26.6054H17.3533V23.5202C17.3533 23.3747 17.2352 23.2565 17.0896 23.2565H1.32031L1.93562 22.0514L1.63778 20.7251H4.3531C4.49706 20.7251 4.61466 20.6096 4.61677 20.4656L4.7138 14.001H7.3516L7.25404 20.4572C7.25193 20.6043 7.37059 20.7251 7.51772 20.7251H23.3656L23.5508 22.2018L23.2316 22.7157L23.6831 23.2565Z" fill="#a1a1a1"/>
<path d="M4.71422 14.001H5.76892L5.67189 20.4656C5.66978 20.6096 5.55218 20.7251 5.40821 20.7251H4.35352C4.49748 20.7251 4.61508 20.6096 4.61719 20.4656L4.71422 14.001Z" fill="#EBEBEB"/>
<path d="M23.6832 23.2569H20.2539C20.1084 23.2569 19.9902 23.375 19.9902 23.5206V22.4658C19.9902 22.3203 20.1084 22.2021 20.2539 22.2021H23.5509L23.6832 23.2569Z" fill="#a1a1a1"/>
<path d="M17.0897 22.2013H3.07517C2.94824 22.2013 2.85005 22.09 2.86587 21.964L3.02154 20.7246H1.63778L1.32031 23.256H2.70355H17.0896C17.2352 23.256 17.3533 23.3742 17.3533 23.5197V22.465C17.3534 22.3193 17.2353 22.2013 17.0897 22.2013Z" fill="#a1a1a1"/>
<path d="M17.3535 25.0234H19.9902V26.6056H17.3535V25.0234Z" fill="#a1a1a1"/>
<path d="M5.06055 8.65957C5.06055 5.63937 6.09737 2.99803 8.38923 1.55617C9.56099 0.818995 10.9573 0.395508 12.5014 0.395508C17.0656 0.395508 20.3385 4.09572 20.3385 8.66016C20.3385 13.8309 15.8599 18.6483 13.6707 20.667C13.1669 21.1316 12.7105 21.3209 12.5317 21.4592C12.4702 21.5069 12.3913 21.4463 12.3297 21.3986C11.3742 20.6596 5.06055 15.0203 5.06055 8.65957Z" fill="#a1a1a1"/>
<path d="M13.6726 20.6679C13.1685 21.132 12.7861 21.4484 12.6074 21.5866C12.5457 21.6346 12.4602 21.6346 12.3985 21.5866C11.4435 20.8477 4.66602 15.0212 4.66602 8.66047C4.66602 5.64016 6.09882 2.9985 8.39068 1.55664C6.8176 3.07023 5.87892 5.26677 5.87892 7.71118C5.87892 14.0719 12.6564 19.8984 13.6114 20.6373C13.6299 20.6521 13.651 20.6621 13.6726 20.6679Z" fill="#a1a1a1"/>
<path d="M18.3034 8.65959C18.3034 9.99276 17.8537 11.2209 17.0978 12.2006C16.037 13.5753 14.3731 14.224 12.5025 14.224C9.29884 14.224 7.02148 11.7451 7.02148 8.5412C7.02148 6.67021 7.58738 5.1245 8.96234 4.06368C9.94189 3.30794 11.1697 2.8584 12.5025 2.8584C15.7062 2.8584 18.3034 5.4557 18.3034 8.65959Z" fill="#F8F7F7"/>
<path d="M17.0968 12.1999C16.0363 13.5748 14.3725 14.4603 12.502 14.4603C9.29837 14.4603 6.70117 11.8629 6.70117 8.65908C6.70117 6.78793 7.58712 5.12404 8.96192 4.06348C8.2057 5.04282 7.75587 6.2711 7.75587 7.60432C7.75587 10.8082 10.3531 13.4055 13.5567 13.4055C14.8898 13.4055 16.1175 12.9562 17.0968 12.1999Z" fill="#EBEBEB"/>
<path d="M24.3471 25.3703L24.0767 23.2164V23.2163L23.7594 20.6882C23.7591 20.6841 23.7584 20.68 23.7579 20.676L23.422 18.0001C23.3948 17.7833 23.1971 17.6296 22.9804 17.6569C22.7636 17.6841 22.61 17.8819 22.6372 18.0986L22.9173 20.3298H14.5982C15.346 19.5955 16.2511 18.6267 17.1436 17.4733C17.948 16.4337 18.618 15.4072 19.1534 14.3968H21.5909C21.9225 14.3968 22.2037 14.6449 22.245 14.9739L22.4057 16.2544C22.4308 16.4545 22.6012 16.6007 22.7976 16.6007C22.8141 16.6007 22.8307 16.5997 22.8474 16.5976C23.0641 16.5704 23.2177 16.3726 23.1905 16.1559L23.0298 14.8754C22.9389 14.1515 22.3203 13.6057 21.5909 13.6057H19.5462C20.3357 11.9029 20.7344 10.2491 20.7344 8.66013C20.7344 6.32415 19.9131 4.15313 18.4218 2.54699C16.8967 0.904564 14.7943 0 12.5019 0C10.9445 0 9.45013 0.422116 8.18022 1.22068C7.99533 1.33696 7.93964 1.58114 8.05597 1.76604C8.17231 1.95094 8.41631 2.00669 8.60136 1.89035C9.74491 1.17121 11.0937 0.791072 12.5019 0.791072C16.7443 0.791072 19.9434 4.17401 19.9434 8.66013C19.9434 10.2865 19.4885 11.9969 18.5871 13.772C18.0709 14.7875 17.3539 15.9128 16.518 16.9892C14.7786 19.2372 13.0017 20.7538 12.5019 21.1626C12.0023 20.7539 10.2253 19.2373 8.48576 16.9892C7.6718 15.9379 6.95255 14.8276 6.41655 13.7717C5.51526 11.9967 5.06037 10.2864 5.06037 8.66013C5.06037 6.49264 5.82603 4.49218 7.21617 3.02717C7.36657 2.86874 7.36003 2.6184 7.20156 2.46799C7.04315 2.31758 6.79276 2.32417 6.64241 2.48259C5.1121 4.09522 4.26934 6.28907 4.26934 8.66008C4.26934 10.2491 4.66807 11.9028 5.45757 13.6056H3.41282C2.68334 13.6056 2.06476 14.1515 1.9739 14.8753L1.2459 20.676C1.24537 20.6801 1.24474 20.6841 1.24437 20.6882L0.92706 23.2163V23.2164L0.656688 25.3703C0.534132 26.1728 1.22633 27.0094 2.09561 27.0012H22.9082C23.7197 27.0229 24.4635 26.2318 24.3471 25.3703ZM10.4056 20.3299H7.65276L7.72095 17.2908C7.76714 17.3516 7.81308 17.4124 7.86017 17.4734C8.75265 18.6268 9.65774 19.5955 10.4056 20.3299ZM1.60128 25.9871C1.4744 25.8432 1.41765 25.6592 1.44154 25.4688L1.66951 23.6524H10.1816C10.4 23.6524 10.5771 23.4753 10.5771 23.2568C10.5771 23.0384 10.4 22.8613 10.1816 22.8613H1.76881L1.98724 21.1209H4.3533C4.71147 21.1209 5.00716 20.8297 5.01243 20.4719L5.04497 18.3054C5.04829 18.087 4.87384 17.9072 4.65547 17.904C4.65341 17.904 4.65141 17.9039 4.64941 17.9039C4.43377 17.9039 4.25732 18.0771 4.25405 18.2935L4.22347 20.3299H2.08654L2.75881 14.9739C2.8001 14.6449 3.08128 14.3968 3.41288 14.3968H4.31253L4.28179 16.4471C4.27847 16.6656 4.45291 16.8453 4.67129 16.8486C4.67335 16.8486 4.67535 16.8486 4.67735 16.8486C4.89299 16.8486 5.06944 16.6754 5.07271 16.459L5.10366 14.3968H5.85044C6.17007 15 6.53805 15.609 6.95371 16.223L6.85884 20.4518C6.85625 20.6298 6.9237 20.7977 7.04868 20.9245C7.17356 21.0512 7.3402 21.1209 7.51797 21.1209H11.2449C11.7965 21.619 12.1471 21.8924 12.1557 21.8991C12.2577 21.9779 12.3798 22.0174 12.5019 22.0174C12.624 22.0174 12.7462 21.9779 12.848 21.8991C12.8567 21.8924 13.2074 21.6191 13.7589 21.121H23.0165L23.235 22.8613H20.2539C19.8904 22.8613 19.5947 23.157 19.5947 23.5206V26.2102H17.749V23.5206C17.749 23.157 17.4533 22.8613 17.0898 22.8613H12.0273C11.8089 22.8613 11.6318 23.0384 11.6318 23.2569C11.6318 23.4753 11.8089 23.6524 12.0273 23.6524H16.958V26.2102H2.09556C1.90376 26.2102 1.72821 26.1309 1.60128 25.9871ZM23.4025 25.9871C23.2756 26.131 23.1 26.2102 22.9082 26.2102H20.3857V23.6524H23.3342L23.5622 25.4688C23.5861 25.6592 23.5294 25.8432 23.4025 25.9871Z" fill="black"/>
<path d="M12.501 14.8564C15.9177 14.8564 18.6974 12.0765 18.6974 8.65962C18.6974 5.24272 15.9177 2.46289 12.501 2.46289C9.08434 2.46289 6.30469 5.24272 6.30469 8.65962C6.30469 12.0765 9.08434 14.8564 12.501 14.8564ZM12.501 3.25396C15.4816 3.25396 17.9064 5.67892 17.9064 8.65962C17.9064 11.6403 15.4816 14.0653 12.501 14.0653C9.52051 14.0653 7.09571 11.6403 7.09571 8.65962C7.09571 5.67892 9.52051 3.25396 12.501 3.25396Z" fill="black"/>
</svg>
