<svg width="27" height="27" viewBox="0 0 27 27" fill="none" xmlns="http://www.w3.org/2000/svg">
<g clip-path="url(#clip0_825_5121)">
<path d="M4.67028 14.2339L4.86677 14.001H22.5922C23.1239 14.001 23.5725 14.3968 23.6386 14.9244L24.3667 20.7251L23.9547 22.1227L24.6844 23.2565L24.9062 25.0233L24.6761 25.0232C24.7551 25.6529 24.2642 26.2094 23.6296 26.2094L3.53922 26.4074C2.90461 26.4074 2.4137 25.851 2.49275 25.2213L3.62375 15.1573C3.68999 14.6297 4.13855 14.2339 4.67028 14.2339Z" fill="#E91B1A"/>
<path d="M23.9085 26.6054H3.09618C2.46126 26.6054 1.97029 26.049 2.0494 25.4193L2.32088 23.2565L2.92284 22.1995L2.6386 20.7251L3.36671 14.9244C3.43316 14.397 3.88141 14.001 4.4135 14.001H4.86597L3.63144 23.8372C3.55234 24.4669 4.0433 25.0232 4.67823 25.0232H24.9058L24.9553 25.4193C25.0344 26.049 24.5435 26.6054 23.9085 26.6054Z" fill="#BB0100"/>
<path d="M24.6831 23.2565H21.2537C21.1082 23.2565 20.99 23.3747 20.99 23.5202V26.6054H18.3533V23.5202C18.3533 23.3747 18.2352 23.2565 18.0896 23.2565H2.32031L2.93562 22.0514L2.63778 20.7251H5.3531C5.49706 20.7251 5.61466 20.6096 5.61677 20.4656L5.7138 14.001H8.3516L8.25404 20.4572C8.25193 20.6043 8.37059 20.7251 8.51772 20.7251H24.3656L24.5508 22.2018L24.2316 22.7157L24.6831 23.2565Z" fill="#F8F7F7"/>
<path d="M5.71422 14.001H6.76892L6.67189 20.4656C6.66978 20.6096 6.55218 20.7251 6.40821 20.7251H5.35352C5.49748 20.7251 5.61508 20.6096 5.61719 20.4656L5.71422 14.001Z" fill="#EBEBEB"/>
<path d="M24.6832 23.2569H21.2539C21.1084 23.2569 20.9902 23.375 20.9902 23.5206V22.4658C20.9902 22.3203 21.1084 22.2021 21.2539 22.2021H24.5509L24.6832 23.2569Z" fill="#EBEBEB"/>
<path d="M18.0897 22.2013H4.07517C3.94824 22.2013 3.85005 22.09 3.86587 21.964L4.02154 20.7246H2.63778L2.32031 23.256H3.70355H18.0896C18.2352 23.256 18.3533 23.3742 18.3533 23.5197V22.465C18.3534 22.3193 18.2353 22.2013 18.0897 22.2013Z" fill="#EBEBEB"/>
<path d="M18.3535 25.0234H20.9902V26.6056H18.3535V25.0234Z" fill="#EBEBEB"/>
<path d="M6.06055 8.65957C6.06055 5.63937 7.09737 2.99803 9.38923 1.55617C10.561 0.818995 11.9573 0.395508 13.5014 0.395508C18.0656 0.395508 21.3385 4.09572 21.3385 8.66016C21.3385 13.8309 16.8599 18.6483 14.6707 20.667C14.1669 21.1316 13.7105 21.3209 13.5317 21.4592C13.4702 21.5069 13.3913 21.4463 13.3297 21.3986C12.3742 20.6596 6.06055 15.0203 6.06055 8.65957Z" fill="#FE3F3F"/>
<path d="M14.6726 20.6679C14.1685 21.132 13.7861 21.4484 13.6074 21.5866C13.5457 21.6346 13.4602 21.6346 13.3985 21.5866C12.4435 20.8477 5.66602 15.0212 5.66602 8.66047C5.66602 5.64016 7.09882 2.9985 9.39068 1.55664C7.8176 3.07023 6.87892 5.26677 6.87892 7.71118C6.87892 14.0719 13.6564 19.8984 14.6114 20.6373C14.6299 20.6521 14.651 20.6621 14.6726 20.6679Z" fill="#9E0100"/>
<path d="M19.3034 8.65959C19.3034 9.99276 18.8537 11.2209 18.0978 12.2006C17.037 13.5753 15.3731 14.224 13.5025 14.224C10.2988 14.224 8.02148 11.7451 8.02148 8.5412C8.02148 6.67021 8.58738 5.1245 9.96234 4.06368C10.9419 3.30794 12.1697 2.8584 13.5025 2.8584C16.7062 2.8584 19.3034 5.4557 19.3034 8.65959Z" fill="#F8F7F7"/>
<path d="M18.0968 12.1999C17.0363 13.5748 15.3725 14.4603 13.502 14.4603C10.2984 14.4603 7.70117 11.8629 7.70117 8.65908C7.70117 6.78793 8.58712 5.12404 9.96192 4.06348C9.2057 5.04282 8.75587 6.2711 8.75587 7.60432C8.75587 10.8082 11.3531 13.4055 14.5567 13.4055C15.8898 13.4055 17.1175 12.9562 18.0968 12.1999Z" fill="#EBEBEB"/>
<path d="M25.3471 25.3703L25.0767 23.2164V23.2163L24.7594 20.6882C24.7591 20.6841 24.7584 20.68 24.7579 20.676L24.422 18.0001C24.3948 17.7833 24.1971 17.6296 23.9804 17.6569C23.7636 17.6841 23.61 17.8819 23.6372 18.0986L23.9173 20.3298H15.5982C16.346 19.5955 17.2511 18.6267 18.1436 17.4733C18.948 16.4337 19.618 15.4072 20.1534 14.3968H22.5909C22.9225 14.3968 23.2037 14.6449 23.245 14.9739L23.4057 16.2544C23.4308 16.4545 23.6012 16.6007 23.7976 16.6007C23.8141 16.6007 23.8307 16.5997 23.8474 16.5976C24.0641 16.5704 24.2177 16.3726 24.1905 16.1559L24.0298 14.8754C23.9389 14.1515 23.3203 13.6057 22.5909 13.6057H20.5462C21.3357 11.9029 21.7344 10.2491 21.7344 8.66013C21.7344 6.32415 20.9131 4.15313 19.4218 2.54699C17.8967 0.904564 15.7943 0 13.5019 0C11.9445 0 10.4501 0.422116 9.18022 1.22068C8.99533 1.33696 8.93964 1.58114 9.05597 1.76604C9.17231 1.95094 9.41631 2.00669 9.60136 1.89035C10.7449 1.17121 12.0937 0.791072 13.5019 0.791072C17.7443 0.791072 20.9434 4.17401 20.9434 8.66013C20.9434 10.2865 20.4885 11.9969 19.5871 13.772C19.0709 14.7875 18.3539 15.9128 17.518 16.9892C15.7786 19.2372 14.0017 20.7538 13.5019 21.1626C13.0023 20.7539 11.2253 19.2373 9.48576 16.9892C8.6718 15.9379 7.95255 14.8276 7.41655 13.7717C6.51526 11.9967 6.06037 10.2864 6.06037 8.66013C6.06037 6.49264 6.82603 4.49218 8.21617 3.02717C8.36657 2.86874 8.36003 2.6184 8.20156 2.46799C8.04315 2.31758 7.79276 2.32417 7.64241 2.48259C6.1121 4.09522 5.26934 6.28907 5.26934 8.66008C5.26934 10.2491 5.66807 11.9028 6.45757 13.6056H4.41282C3.68334 13.6056 3.06476 14.1515 2.9739 14.8753L2.2459 20.676C2.24537 20.6801 2.24474 20.6841 2.24437 20.6882L1.92706 23.2163V23.2164L1.65669 25.3703C1.53413 26.1728 2.22633 27.0094 3.09561 27.0012H23.9082C24.7197 27.0229 25.4635 26.2318 25.3471 25.3703ZM11.4056 20.3299H8.65276L8.72095 17.2908C8.76714 17.3516 8.81308 17.4124 8.86017 17.4734C9.75265 18.6268 10.6577 19.5955 11.4056 20.3299ZM2.60128 25.9871C2.4744 25.8432 2.41765 25.6592 2.44154 25.4688L2.66951 23.6524H11.1816C11.4 23.6524 11.5771 23.4753 11.5771 23.2568C11.5771 23.0384 11.4 22.8613 11.1816 22.8613H2.76881L2.98724 21.1209H5.3533C5.71147 21.1209 6.00716 20.8297 6.01243 20.4719L6.04497 18.3054C6.04829 18.087 5.87384 17.9072 5.65547 17.904C5.65341 17.904 5.65141 17.9039 5.64941 17.9039C5.43377 17.9039 5.25732 18.0771 5.25405 18.2935L5.22347 20.3299H3.08654L3.75881 14.9739C3.8001 14.6449 4.08128 14.3968 4.41288 14.3968H5.31253L5.28179 16.4471C5.27847 16.6656 5.45291 16.8453 5.67129 16.8486C5.67335 16.8486 5.67535 16.8486 5.67735 16.8486C5.89299 16.8486 6.06944 16.6754 6.07271 16.459L6.10366 14.3968H6.85044C7.17007 15 7.53805 15.609 7.95371 16.223L7.85884 20.4518C7.85625 20.6298 7.9237 20.7977 8.04868 20.9245C8.17356 21.0512 8.3402 21.1209 8.51797 21.1209H12.2449C12.7965 21.619 13.1471 21.8924 13.1557 21.8991C13.2577 21.9779 13.3798 22.0174 13.5019 22.0174C13.624 22.0174 13.7462 21.9779 13.848 21.8991C13.8567 21.8924 14.2074 21.6191 14.7589 21.121H24.0165L24.235 22.8613H21.2539C20.8904 22.8613 20.5947 23.157 20.5947 23.5206V26.2102H18.749V23.5206C18.749 23.157 18.4533 22.8613 18.0898 22.8613H13.0273C12.8089 22.8613 12.6318 23.0384 12.6318 23.2569C12.6318 23.4753 12.8089 23.6524 13.0273 23.6524H17.958V26.2102H3.09556C2.90376 26.2102 2.72821 26.1309 2.60128 25.9871ZM24.4025 25.9871C24.2756 26.131 24.1 26.2102 23.9082 26.2102H21.3857V23.6524H24.3342L24.5622 25.4688C24.5861 25.6592 24.5294 25.8432 24.4025 25.9871Z" fill="black"/>
<path d="M13.501 14.8564C16.9177 14.8564 19.6974 12.0765 19.6974 8.65962C19.6974 5.24272 16.9177 2.46289 13.501 2.46289C10.0843 2.46289 7.30469 5.24272 7.30469 8.65962C7.30469 12.0765 10.0843 14.8564 13.501 14.8564ZM13.501 3.25396C16.4816 3.25396 18.9064 5.67892 18.9064 8.65962C18.9064 11.6403 16.4816 14.0653 13.501 14.0653C10.5205 14.0653 8.09571 11.6403 8.09571 8.65962C8.09571 5.67892 10.5205 3.25396 13.501 3.25396Z" fill="black"/>
</g>
<defs>
<clipPath id="clip0_825_5121">
<rect width="27" height="27.0017" fill="white"/>
</clipPath>
</defs>
</svg>
