<svg width="25" height="27" viewBox="0 0 25 27" fill="none" xmlns="http://www.w3.org/2000/svg">
<path d="M22.1807 0.395508H21.2195H4.42527H2.74584C1.81835 0.395508 1.06641 1.14739 1.06641 2.07494V19.2485C1.06641 19.9665 1.64849 20.5486 2.36657 20.5486H4.42527V25.8357C4.42527 26.0198 4.55157 26.1799 4.73065 26.2227L6.28331 26.5937C6.34412 26.6083 6.40745 26.6083 6.46825 26.5937L8.2338 26.1718C8.2946 26.1573 8.35799 26.1573 8.41879 26.1718L10.1841 26.5937C10.2449 26.6083 10.3083 26.6083 10.3691 26.5937L12.1344 26.1718C12.1952 26.1573 12.2586 26.1573 12.3194 26.1718L14.0849 26.5937C14.1457 26.6083 14.2091 26.6083 14.2699 26.5937L16.0355 26.1718C16.0963 26.1573 16.1596 26.1573 16.2204 26.1718L17.9861 26.5937C18.0469 26.6083 18.1103 26.6083 18.1711 26.5937L19.9367 26.1718C19.9975 26.1573 20.0609 26.1573 20.1217 26.1718L21.8876 26.5937C21.9484 26.6082 22.0117 26.6082 22.0725 26.5937L23.6255 26.2226C23.8046 26.1798 23.9309 26.0198 23.9309 25.8357V2.14566C23.9309 1.17909 23.1473 0.395508 22.1807 0.395508Z" fill="#a1a1a1"/>
<path d="M2.74584 0.395508C1.81829 0.395508 1.06641 1.14739 1.06641 2.07494V19.2485C1.06641 19.9665 1.64849 20.5486 2.36657 20.5486H4.42527V2.07494C4.42527 1.14745 3.67333 0.395508 2.74584 0.395508Z" fill="#a1a1a1"/>
<path d="M22.1809 0.395508H21.2197H21.0176V26.1497L20.5234 26.2678L21.8877 26.5938C21.9485 26.6083 22.0119 26.6083 22.0727 26.5938L23.6256 26.2227C23.8047 26.1799 23.931 26.0198 23.931 25.8357V2.14566C23.931 1.17909 23.1474 0.395508 22.1809 0.395508Z" fill="#a1a1a1"/>
<path d="M6.57622 3.39945C6.57622 3.24768 6.73364 3.16895 6.89669 3.16895H7.98181C8.56647 3.16895 9.11185 3.36011 9.11185 4.15851C9.11185 4.61951 8.93192 4.9231 8.63392 5.05241C8.97685 5.18735 9.213 5.40662 9.213 5.96882V6.0869C9.213 6.96392 8.72388 7.2788 8.08854 7.2788H6.89664C6.69989 7.2788 6.57617 7.17201 6.57617 7.05389V3.39945H6.57622ZM7.30148 4.76569H7.93113C8.23472 4.76569 8.3809 4.56894 8.3809 4.28217C8.3809 3.98981 8.21226 3.80993 7.92549 3.80993H7.30143L7.30148 4.76569ZM7.93677 6.63781C8.2797 6.63781 8.4821 6.45229 8.4821 6.02504V5.93507C8.4821 5.49659 8.2797 5.33912 7.93677 5.33912H7.30148V6.63781H7.93677Z" fill="black"/>
<path d="M9.73438 3.39386C9.73438 3.23645 9.9143 3.16895 10.0998 3.16895C10.2798 3.16895 10.4653 3.23639 10.4653 3.39386V7.0483C10.4653 7.20012 10.2798 7.2788 10.0998 7.2788C9.9143 7.2788 9.73438 7.20012 9.73438 7.0483V3.39386Z" fill="black"/>
<path d="M11.4611 7.2788C11.298 7.2788 11.1406 7.20012 11.1406 7.0483V3.39386C11.1406 3.23645 11.3206 3.16895 11.5061 3.16895C11.686 3.16895 11.8715 3.23639 11.8715 3.39386V6.63787H13.2434C13.3895 6.63787 13.4626 6.79528 13.4626 6.95833C13.4626 7.11574 13.3895 7.2788 13.2434 7.2788H11.4611Z" fill="black"/>
<path d="M14.1818 7.2788C14.0187 7.2788 13.8613 7.20012 13.8613 7.0483V3.39386C13.8613 3.23645 14.0413 3.16895 14.2268 3.16895C14.4067 3.16895 14.5922 3.23639 14.5922 3.39386V6.63787H15.9641C16.1102 6.63787 16.1833 6.79528 16.1833 6.95833C16.1833 7.11574 16.1102 7.2788 15.9641 7.2788H14.1818Z" fill="black"/>
<path d="M19.8325 7.27319C19.1523 7.25631 18.6406 6.89086 18.6406 6.57604C18.6406 6.41863 18.7812 6.18243 18.9554 6.18243C19.1691 6.18243 19.3378 6.54793 19.8325 6.60409V5.48528C19.3209 5.29412 18.7418 5.0749 18.7418 4.35523C18.7418 3.64121 19.2703 3.33198 19.8325 3.25889V3.10147C19.8325 3.02838 19.9168 2.96094 20.0237 2.96094C20.1192 2.96094 20.2149 3.02838 20.2149 3.10147V3.24765C20.5803 3.25889 21.1763 3.36567 21.1763 3.69178C21.1763 3.82109 21.0863 4.0797 20.8783 4.0797C20.7209 4.0797 20.5915 3.89982 20.2149 3.87171V4.86122C20.7152 5.04679 21.2774 5.29976 21.2774 6.06436C21.2774 6.75586 20.8446 7.15506 20.2149 7.25626V7.4306C20.2149 7.50369 20.1192 7.57114 20.0237 7.57114C19.9168 7.57114 19.8325 7.50369 19.8325 7.4306V7.27319ZM19.8775 4.73756V3.88864C19.5964 3.93368 19.4277 4.06857 19.4277 4.2822C19.4277 4.52957 19.6189 4.63636 19.8775 4.73756ZM20.1698 5.62028V6.59855C20.4172 6.54798 20.5915 6.4018 20.5915 6.13755C20.5915 5.86207 20.4116 5.72712 20.1698 5.62028Z" fill="black"/>
<path d="M16.7005 11.5547H6.51074C6.29232 11.5547 6.11523 11.7317 6.11523 11.9502C6.11523 12.1687 6.29232 12.3457 6.51074 12.3457H16.7005C16.9189 12.3457 17.096 12.1687 17.096 11.9502C17.096 11.7317 16.9189 11.5547 16.7005 11.5547Z" fill="black"/>
<path d="M16.7005 14.8457H6.51074C6.29232 14.8457 6.11523 15.0227 6.11523 15.2412C6.11523 15.4597 6.29232 15.6367 6.51074 15.6367H16.7005C16.9189 15.6367 17.096 15.4597 17.096 15.2412C17.096 15.0227 16.9189 14.8457 16.7005 14.8457Z" fill="black"/>
<path d="M16.7005 18.1357H6.51074C6.29232 18.1357 6.11523 18.3128 6.11523 18.5312C6.11523 18.7497 6.29232 18.9268 6.51074 18.9268H16.7005C16.9189 18.9268 17.096 18.7497 17.096 18.5312C17.096 18.3128 16.9189 18.1357 16.7005 18.1357Z" fill="black"/>
<path d="M16.7005 21.4258H6.51074C6.29232 21.4258 6.11523 21.6028 6.11523 21.8213C6.11523 22.0398 6.29232 22.2168 6.51074 22.2168H16.7005C16.9189 22.2168 17.096 22.0398 17.096 21.8213C17.096 21.6028 16.9189 21.4258 16.7005 21.4258Z" fill="black"/>
<path d="M21.135 11.5547H18.5713C18.3529 11.5547 18.1758 11.7317 18.1758 11.9502C18.1758 12.1687 18.3529 12.3457 18.5713 12.3457H21.135C21.3534 12.3457 21.5305 12.1687 21.5305 11.9502C21.5305 11.7317 21.3534 11.5547 21.135 11.5547Z" fill="black"/>
<path d="M21.135 14.8457H18.5713C18.3529 14.8457 18.1758 15.0227 18.1758 15.2412C18.1758 15.4597 18.3529 15.6367 18.5713 15.6367H21.135C21.3534 15.6367 21.5305 15.4597 21.5305 15.2412C21.5305 15.0227 21.3534 14.8457 21.135 14.8457Z" fill="black"/>
<path d="M21.135 18.1357H18.5713C18.3529 18.1357 18.1758 18.3128 18.1758 18.5312C18.1758 18.7497 18.3529 18.9268 18.5713 18.9268H21.135C21.3534 18.9268 21.5305 18.7497 21.5305 18.5312C21.5305 18.3128 21.3534 18.1357 21.135 18.1357Z" fill="black"/>
<path d="M22.1817 0H2.74681C1.60269 0 0.671875 0.930814 0.671875 2.07489V19.2484C0.671875 20.1834 1.43252 20.944 2.36755 20.944H2.56831C2.78673 20.944 2.96382 20.767 2.96382 20.5485C2.96382 20.33 2.78673 20.153 2.56831 20.153H2.36755C1.86873 20.153 1.46289 19.7472 1.46289 19.2484V2.07489C1.46289 1.36693 2.03886 0.790963 2.74681 0.790963C3.45477 0.790963 4.03074 1.36687 4.03074 2.07489V25.8356C4.03074 26.2043 4.28117 26.5216 4.63971 26.6073L6.19237 26.9783C6.31298 27.0072 6.44049 27.0071 6.56114 26.9783L8.3278 26.5564L10.0931 26.9783C10.2138 27.0072 10.3413 27.0071 10.462 26.9783L12.2284 26.5564L13.994 26.9783C14.1146 27.0072 14.2421 27.0071 14.3628 26.9783L16.1295 26.5564L17.8952 26.9783C18.0159 27.0072 18.1433 27.0071 18.264 26.9783L20.0308 26.5564L21.7964 26.9782C21.8568 26.9927 21.919 26.9999 21.9811 26.9999C22.0432 26.9999 22.1052 26.9927 22.1655 26.9783L23.7185 26.6073C24.077 26.5216 24.3275 26.2043 24.3275 25.8356V2.14566C24.3274 0.962508 23.3648 0 22.1817 0ZM23.5345 25.838L21.9804 26.209L20.2145 25.7871C20.0939 25.7582 19.9664 25.7582 19.8457 25.7871L18.079 26.209L16.3133 25.7871C16.1926 25.7583 16.0651 25.7583 15.9445 25.7871L14.1778 26.209L12.4121 25.7871C12.2915 25.7583 12.164 25.7584 12.0434 25.7871L10.277 26.209L8.51163 25.7871C8.4513 25.7727 8.38934 25.7655 8.32727 25.7655C8.26526 25.7655 8.20319 25.7728 8.14286 25.7871L6.37621 26.209L4.82175 25.8357V2.07489C4.82175 2.04161 4.82081 2.00855 4.81922 1.97559C4.8187 1.96488 4.81785 1.95428 4.81717 1.94363C4.81579 1.92138 4.81416 1.89918 4.8121 1.87708C4.81094 1.86479 4.80952 1.85261 4.80815 1.84043C4.80583 1.81992 4.80324 1.79945 4.80034 1.7791C4.79855 1.76676 4.79676 1.75447 4.79475 1.74224C4.79143 1.72167 4.78769 1.70121 4.78378 1.6808C4.78157 1.66941 4.77951 1.65797 4.77709 1.64663C4.77218 1.62327 4.7667 1.60007 4.761 1.57702C4.75905 1.56911 4.75737 1.5611 4.75531 1.55319C4.74735 1.52249 4.73864 1.49207 4.72931 1.4619C4.72694 1.45431 4.7243 1.44687 4.72182 1.43933C4.71455 1.41676 4.707 1.39424 4.69899 1.37199C4.69509 1.36118 4.69087 1.35047 4.68681 1.33977C4.67964 1.32094 4.6723 1.30217 4.66461 1.28361C4.65991 1.27222 4.65506 1.26093 4.65016 1.2497C4.64235 1.23172 4.63423 1.21389 4.6259 1.19617C4.62078 1.18526 4.61567 1.17434 4.61034 1.16353C4.60117 1.14481 4.59157 1.12635 4.58181 1.10795C4.57691 1.09872 4.57221 1.08939 4.5672 1.08021C4.55318 1.05463 4.53868 1.02943 4.52365 1.00454C4.52259 1.00285 4.5217 1.00106 4.52064 0.999369C4.50456 0.972949 4.48779 0.946951 4.47054 0.921322C4.4649 0.912937 4.45899 0.904764 4.45325 0.896484C4.44122 0.879187 4.42909 0.861943 4.4166 0.845016C4.40969 0.835629 4.40257 0.8264 4.3955 0.817172C4.38886 0.808471 4.38248 0.799611 4.37573 0.791068H22.1817C22.9287 0.791068 23.5364 1.39878 23.5364 2.14576L23.5345 25.838Z" fill="black"/>
</svg>
