<svg width="27" height="19" viewBox="0 0 27 19" fill="none" xmlns="http://www.w3.org/2000/svg">
<path d="M22.7502 8.2796C24.8785 8.2796 26.6038 6.55426 26.6038 4.42594C26.6038 2.29761 24.8785 0.572266 22.7502 0.572266C20.6218 0.572266 18.8965 2.29761 18.8965 4.42594C18.8965 6.55426 20.6218 8.2796 22.7502 8.2796Z" fill="#E91B1A"/>
<path d="M23.3368 0.616211C24.0519 1.31584 24.4957 2.29158 24.4957 3.37105C24.4957 5.49941 22.7704 7.22472 20.642 7.22472C20.443 7.22472 20.2475 7.20964 20.0566 7.18053C20.7515 7.86033 21.7025 8.27941 22.7514 8.27941C24.8797 8.27941 26.6051 6.55405 26.6051 4.42574C26.6051 2.4964 25.1873 0.898234 23.3368 0.616211Z" fill="#FE3F3F"/>
<path d="M18.8961 4.42597C18.8961 4.38474 18.8968 4.34366 18.8981 4.30273H2.26613C1.23248 4.30273 0.394531 5.14068 0.394531 6.17433V16.5563C0.394531 17.59 1.23248 18.4279 2.26613 18.4279H20.8783C21.9119 18.4279 22.7498 17.59 22.7498 16.5563V8.27964C20.6215 8.2797 18.8961 6.55433 18.8961 4.42597Z" fill="#FE3F3F"/>
<path d="M20.6407 7.65137V12.4735C20.6407 15.1794 18.4471 17.373 15.7412 17.373H0.582031C0.885412 17.9973 1.52561 18.4277 2.26637 18.4277H20.8785C21.9121 18.4277 22.7501 17.5897 22.7501 16.5561V8.27943C21.9714 8.27943 21.2467 8.04851 20.6407 7.65137Z" fill="#E91B1A"/>
<path d="M20.8014 14.8735H18.488C18.458 14.8735 18.4336 14.8491 18.4336 14.8191V13.5574C18.4336 13.5273 18.458 13.5029 18.488 13.5029H20.8014C20.8315 13.5029 20.8558 13.5273 20.8558 13.5574V14.8191C20.8559 14.8491 20.8315 14.8735 20.8014 14.8735Z" fill="#F6F9F9"/>
<path d="M20.8009 13.5029H20.5323C20.4281 13.9906 20.2512 14.4515 20.0137 14.8735H20.8009C20.831 14.8735 20.8554 14.8491 20.8554 14.8191V13.5574C20.8554 13.5273 20.831 13.5029 20.8009 13.5029Z" fill="#E7ECF1"/>
<path d="M24.1094 2.74164L22.2185 4.63249C22.1763 4.67467 22.1079 4.67467 22.0657 4.63249L21.3907 3.95748C21.3486 3.9153 21.2802 3.9153 21.238 3.95748L20.3813 4.81421C20.3391 4.8564 20.3391 4.92479 20.3813 4.96698L22.0658 6.65153C22.108 6.69371 22.1764 6.69371 22.2186 6.65153L25.119 3.75113C25.1611 3.70895 25.1611 3.64055 25.119 3.59836L24.2622 2.74164C24.2199 2.6994 24.1515 2.6994 24.1094 2.74164Z" fill="#F6F9F9"/>
<path d="M24.4721 2.95117C24.487 3.08913 24.4947 3.22929 24.4947 3.3712C24.4947 3.78743 24.4287 4.18822 24.3066 4.56374L25.1192 3.75115C25.1614 3.70896 25.1614 3.64057 25.1192 3.59838L24.4721 2.95117Z" fill="#E7ECF1"/>
<path d="M19.9498 7.07422H0.394531V9.61776H22.7498V8.28015C21.6469 8.28015 20.6522 7.81682 19.9498 7.07422Z" fill="#E91B1A"/>
<path d="M20.6406 7.65137V9.61704H22.75V8.27943C22.7497 8.27943 22.7503 8.27943 22.75 8.27943C21.9716 8.27927 21.2464 8.04835 20.6406 7.65137Z" fill="#E91B1A"/>
<path d="M9.43652 13.793C9.2181 13.793 9.04102 13.97 9.04102 14.1885C9.04102 14.407 9.2181 14.584 9.43652 14.584H11.0641C11.2825 14.584 11.4596 14.407 11.4596 14.1885C11.4596 13.97 11.2825 13.793 11.0641 13.793H9.43652Z" fill="black"/>
<path d="M12.4189 13.793C12.2005 13.793 12.0234 13.97 12.0234 14.1885C12.0234 14.407 12.2005 14.584 12.4189 14.584H14.0465C14.2649 14.584 14.442 14.407 14.442 14.1885C14.442 13.97 14.2649 13.793 14.0465 13.793H12.4189Z" fill="black"/>
<path d="M15.3994 13.793C15.181 13.793 15.0039 13.97 15.0039 14.1885C15.0039 14.407 15.181 14.584 15.3994 14.584H17.027C17.2454 14.584 17.4225 14.407 17.4225 14.1885C17.4225 13.97 17.2454 13.793 17.027 13.793H15.3994Z" fill="black"/>
<path d="M18.489 13.1074C18.2409 13.1074 18.0391 13.3092 18.0391 13.5574V14.8191C18.0391 15.0672 18.2409 15.269 18.489 15.269H20.8024C21.0506 15.269 21.2524 15.0672 21.2524 14.8191V13.5574C21.2524 13.3092 21.0505 13.1074 20.8024 13.1074H18.489ZM20.4614 14.478H18.8301V13.8985H20.4614V14.478Z" fill="black"/>
<path d="M22.4993 6.93129L25.3998 4.03084C25.5965 3.83404 25.5965 3.51552 25.3997 3.31877L24.5432 2.46226C24.3466 2.2654 24.0278 2.26503 23.8309 2.46205L22.1433 4.1496L21.6715 3.67784C21.4751 3.48162 21.1557 3.48177 20.9594 3.67789L20.1028 4.53456C19.906 4.73126 19.9058 5.04994 20.1027 5.24679L21.7871 6.93108C21.9839 7.12825 22.3029 7.12804 22.4993 6.93129ZM21.3155 4.44054L21.7871 4.91204C21.9839 5.10916 22.3028 5.109 22.4993 4.91225L24.1869 3.22469L24.6371 3.67484L22.1433 6.16864L20.8653 4.89068L21.3155 4.44054Z" fill="black"/>
<path d="M22.7508 0.176758C21.6752 0.176758 20.6488 0.579543 19.8608 1.31086C19.7007 1.45942 19.6914 1.70964 19.8399 1.86979C19.9885 2.02995 20.2387 2.03923 20.3989 1.89068C21.0402 1.29557 21.8754 0.967826 22.7508 0.967826C24.6576 0.967826 26.209 2.51917 26.209 4.42599C26.209 6.33281 24.6576 7.88415 22.7508 7.88415C20.8439 7.88415 19.2926 6.33281 19.2926 4.42599C19.2926 4.0424 19.3549 3.66572 19.4778 3.30649C19.5484 3.09977 19.4382 2.87491 19.2315 2.8043C19.0248 2.73374 18.8 2.8439 18.7293 3.05057C18.6341 3.3289 18.5685 3.61557 18.533 3.90729H2.2671C1.01704 3.90719 0 4.92428 0 6.17434V16.5563C0 17.8064 1.01704 18.8234 2.2671 18.8234H20.8792C22.1293 18.8234 23.1463 17.8064 23.1463 16.5563V13.7652C23.1463 13.5468 22.9692 13.3697 22.7508 13.3697C22.5323 13.3697 22.3553 13.5468 22.3553 13.7652V16.5563C22.3553 17.3703 21.6931 18.0324 20.8792 18.0324H2.2671C1.4532 18.0324 0.791016 17.3702 0.791016 16.5563V10.0128H3.06381C3.28224 10.0128 3.45932 9.83574 3.45932 9.61727C3.45932 9.39879 3.28224 9.22176 3.06381 9.22176H0.791016V7.46924H19.7882C20.4654 8.12873 21.3613 8.56474 22.3553 8.65692V9.22181H4.90952C4.69109 9.22181 4.51401 9.39884 4.51401 9.61732C4.51401 9.8358 4.69109 10.0128 4.90952 10.0128H22.3553V11.9196C22.3553 12.1381 22.5324 12.3151 22.7508 12.3151C22.9692 12.3151 23.1463 12.1381 23.1463 11.9196V8.65692C25.3046 8.45674 27 6.63561 27 4.42594C27 2.08295 25.0938 0.176758 22.7508 0.176758ZM0.791016 6.17434C0.791016 5.36039 1.4532 4.69826 2.2671 4.69826H18.5102C18.5562 5.42203 18.7842 6.09714 19.1489 6.67822H0.791016V6.17434Z" fill="black"/>
</svg>
