<svg width="27" height="19" viewBox="0 0 27 19" fill="none" xmlns="http://www.w3.org/2000/svg">
<path d="M18.9114 1.38281H2.67749C2.42848 1.38281 2.22656 1.58473 2.22656 1.83374V11.3035H3.57936C4.07743 11.3035 4.48122 11.7072 4.48122 12.2053C4.48122 12.7034 4.07738 13.1072 3.57936 13.1072H2.22656V14.46C2.22656 14.709 2.42848 14.9109 2.67749 14.9109H19.3623V1.83374C19.3623 1.58473 19.1604 1.38281 18.9114 1.38281Z" fill="#a1a1a1"/>
<path d="M24.7726 8.59766H19.3613V14.9108H26.5763V10.4014C26.5763 9.40523 25.7688 8.59766 24.7726 8.59766Z" fill="#a1a1a1"/>
<path d="M19 10H24.065C24.5814 10 25 10.407 25 10.9091V15H19V10Z" fill="#a1a1a1"/>
<path d="M22.9688 3.18652H19.3613V4.9903H24.3217V4.53937C24.3217 3.79218 23.716 3.18652 22.9688 3.18652Z" fill="#a1a1a1"/>
<path d="M24.7726 8.59774L23.8707 4.99023H19.3613V8.59774H24.7726Z" fill="#EDEDED"/>
<path d="M24.7734 10.4014H26.5772V12.2051H25.6754C25.1772 12.2051 24.7735 11.8014 24.7735 11.3033V10.4014H24.7734Z" fill="#a1a1a1"/>
<path d="M22.5179 11.7539C21.1588 11.7539 19.9764 12.5062 19.3613 13.6163V14.9105H26.0942C25.8719 13.1314 24.3572 11.7539 22.5179 11.7539Z" fill="#a1a1a1"/>
<path d="M25.1484 12.8965V14.911H26.0943C25.9975 14.1364 25.6554 13.4383 25.1484 12.8965Z" fill="#a1a1a1"/>
<path d="M22.5184 17.6168C23.7636 17.6168 24.7731 16.6074 24.7731 15.3621C24.7731 14.1169 23.7636 13.1074 22.5184 13.1074C21.2731 13.1074 20.2637 14.1169 20.2637 15.3621C20.2637 16.6074 21.2731 17.6168 22.5184 17.6168Z" fill="#a1a1a1"/>
<path d="M21.1651 6.34303H24.2089L23.8707 4.99023H19.3613V8.59774H20.7141V6.79396C20.7141 6.54495 20.916 6.34303 21.1651 6.34303Z" fill="#a1a1a1"/>
<path d="M7.63785 11.7539C6.49915 11.7539 5.48528 12.2827 4.82421 13.1067H3.57941H2.22656V14.4595C2.22656 14.7085 2.42848 14.9104 2.67749 14.9104H19.3623V13.1066H10.4515C9.79041 12.2827 8.77654 11.7539 7.63785 11.7539Z" fill="#a1a1a1"/>
<path d="M7.63752 17.6168C8.88277 17.6168 9.89223 16.6074 9.89223 15.3621C9.89223 14.1169 8.88277 13.1074 7.63752 13.1074C6.39228 13.1074 5.38281 14.1169 5.38281 15.3621C5.38281 16.6074 6.39228 17.6168 7.63752 17.6168Z" fill="#a1a1a1"/>
<path d="M25.1099 8.20044L24.4107 5.40368C24.6019 5.36307 24.7453 5.19348 24.7453 4.99029V4.53936C24.7453 3.56029 23.9487 2.76379 22.9697 2.76379H19.785V1.83366C19.785 1.35188 19.3931 0.959961 18.9113 0.959961H2.67743C2.19565 0.959961 1.80373 1.35188 1.80373 1.83366V9.49966C1.80373 9.73312 1.99299 9.92243 2.2265 9.92243C2.46001 9.92243 2.64927 9.73317 2.64927 9.49966V1.83366C2.64927 1.81811 2.66187 1.8055 2.67743 1.8055H18.9112C18.9268 1.8055 18.9394 1.81811 18.9394 1.83366V9.49977C18.9394 9.73322 19.1287 9.92254 19.3622 9.92254C19.5956 9.92254 19.7849 9.73327 19.7849 9.49977V9.02052H24.772L24.7731 9.02062L24.7742 9.02057C25.3879 9.02094 25.909 9.42378 26.088 9.9788H24.7734C24.5399 9.9788 24.3506 10.1681 24.3506 10.4016V11.3034C24.3506 12.0339 24.9448 12.6281 25.6753 12.6281H26.1544V14.4882H25.049C24.6859 13.4397 23.6891 12.6844 22.5187 12.6844C21.3482 12.6844 20.3515 13.4397 19.9884 14.4882H19.7848V11.3034C19.7848 11.07 19.5956 10.8807 19.3621 10.8807C19.1286 10.8807 18.9393 11.0699 18.9393 11.3034V14.4881H10.1681C9.80496 13.4396 8.80822 12.6843 7.63778 12.6843C6.46734 12.6843 5.47056 13.4396 5.10748 14.4881H2.67743C2.66187 14.4881 2.64927 14.4755 2.64927 14.46V13.5299H4.48121C4.71466 13.5299 4.90398 13.3406 4.90398 13.1071C4.90398 12.8737 4.71472 12.6843 4.48121 12.6843H0.422772C0.189316 12.6843 0 12.8736 0 13.1071C0 13.3406 0.189264 13.5299 0.422772 13.5299H1.80378V14.46C1.80378 14.9417 2.1957 15.3337 2.67748 15.3337H4.96109C4.96099 15.3431 4.96035 15.3524 4.96035 15.3618C4.96035 16.8382 6.16149 18.0393 7.63778 18.0393C9.11408 18.0393 10.3152 16.8382 10.3152 15.3618C10.3152 15.3523 10.3146 15.3431 10.3145 15.3337H19.842C19.8419 15.3431 19.8413 15.3524 19.8413 15.3618C19.8413 16.8382 21.0424 18.0393 22.5187 18.0393C23.995 18.0393 25.1961 16.8382 25.1961 15.3618C25.1961 15.3523 25.1955 15.3431 25.1954 15.3337H26.5772C26.8106 15.3337 26.9999 15.1444 26.9999 14.9109V10.4015C27 9.2882 26.1786 8.36313 25.1099 8.20044ZM19.785 5.41301H23.5415L24.232 8.17503H19.785V5.41301ZM22.9697 3.60928C23.4826 3.60928 23.8998 4.02652 23.8998 4.53936V4.56752H19.785V3.60928H22.9697ZM7.63778 17.1938C6.62766 17.1938 5.80584 16.3721 5.80584 15.3619C5.80584 14.3517 6.62766 13.5299 7.63778 13.5299C8.64791 13.5299 9.46972 14.3517 9.46972 15.3619C9.46972 16.3721 8.64791 17.1938 7.63778 17.1938ZM22.5188 17.1938C21.5087 17.1938 20.6869 16.3721 20.6869 15.3619C20.6869 14.3517 21.5087 13.5299 22.5188 13.5299C23.5289 13.5299 24.3507 14.3517 24.3507 15.3619C24.3507 16.3721 23.5289 17.1938 22.5188 17.1938ZM25.6754 11.7825C25.4112 11.7825 25.1962 11.5676 25.1962 11.3034V10.8242H26.1545V11.7825L25.6754 11.7825Z" fill="black"/>
<path d="M7.63738 14.4883C7.15559 14.4883 6.76367 14.8802 6.76367 15.362C6.76367 15.8438 7.15559 16.2357 7.63738 16.2357C8.11916 16.2357 8.51108 15.8438 8.51108 15.362C8.51108 14.8802 8.11916 14.4883 7.63738 14.4883Z" fill="black"/>
<path d="M22.5182 14.4883C22.0365 14.4883 21.6445 14.8802 21.6445 15.362C21.6445 15.8438 22.0365 16.2357 22.5182 16.2357C23 16.2357 23.3919 15.8438 23.3919 15.362C23.3919 14.8802 23 14.4883 22.5182 14.4883Z" fill="black"/>
<path d="M10.8223 13.1073C10.8223 13.3408 11.0115 13.5301 11.245 13.5301H17.5581C17.7916 13.5301 17.9809 13.3408 17.9809 13.1073C17.9809 12.8739 17.7916 12.6846 17.5581 12.6846H11.245C11.0115 12.6846 10.8223 12.8739 10.8223 13.1073Z" fill="black"/>
<path d="M1.32512 11.7264H6.7364C6.96986 11.7264 7.15917 11.5371 7.15917 11.3036C7.15917 11.0702 6.96991 10.8809 6.7364 10.8809H1.32512C1.09166 10.8809 0.902344 11.0701 0.902344 11.3036C0.902344 11.5371 1.09166 11.7264 1.32512 11.7264Z" fill="black"/>
<path d="M14.103 5.14235L10.3435 8.90184L8.3877 6.94607C8.22259 6.78096 7.95491 6.78096 7.78985 6.94607C7.62474 7.11119 7.62474 7.37881 7.78985 7.54392L10.0446 9.79864C10.1271 9.88122 10.2353 9.92246 10.3435 9.92246C10.4516 9.92246 10.5598 9.88122 10.6424 9.79864L14.7008 5.7402C14.8659 5.57509 14.8659 5.30746 14.7008 5.14235C14.5358 4.97729 14.2681 4.97729 14.103 5.14235Z" fill="black"/>
</svg>
